<svg width="22" height="18" viewBox="0 0 22 18" fill="none" xmlns="http://www.w3.org/2000/svg">
<path d="M19.56 0.280029H2.44C1.263 0.280029 0.310699 1.24303 0.310699 2.42003L0.299999 15.26C0.299999 16.437 1.263 17.4 2.44 17.4H19.56C20.737 17.4 21.7 16.437 21.7 15.26V2.42003C21.7 1.24303 20.737 0.280029 19.56 0.280029ZM19.132 4.82753L11.5671 9.55693C11.2247 9.77093 10.7753 9.77093 10.4329 9.55693L2.868 4.82753C2.76071 4.7673 2.66675 4.68593 2.59182 4.58834C2.51689 4.49074 2.46254 4.37896 2.43205 4.25976C2.40157 4.14055 2.3956 4.0164 2.41449 3.89482C2.43338 3.77324 2.47674 3.65675 2.54195 3.55241C2.60716 3.44807 2.69287 3.35805 2.79388 3.28779C2.89489 3.21754 3.0091 3.16851 3.12961 3.14367C3.25012 3.11883 3.37441 3.1187 3.49497 3.14329C3.61553 3.16788 3.72985 3.21668 3.831 3.28673L11 7.77003L18.169 3.28673C18.2702 3.21668 18.3845 3.16788 18.505 3.14329C18.6256 3.1187 18.7499 3.11883 18.8704 3.14367C18.9909 3.16851 19.1051 3.21754 19.2061 3.28779C19.3071 3.35805 19.3928 3.44807 19.458 3.55241C19.5233 3.65675 19.5666 3.77324 19.5855 3.89482C19.6044 4.0164 19.5984 4.14055 19.5679 4.25976C19.5375 4.37896 19.4831 4.49074 19.4082 4.58834C19.3332 4.68593 19.2393 4.7673 19.132 4.82753Z" fill="white"/>
</svg>
