<svg width="20" height="21" viewBox="0 0 20 21" fill="none" xmlns="http://www.w3.org/2000/svg">
<path d="M5.767 1.31006C6.50778 1.56359 7.21228 1.91531 7.8622 2.35606C8.78065 2.11763 9.72516 1.99802 10.6732 2.00006C11.6523 2.00006 12.5969 2.12406 13.4823 2.35506C14.1319 1.91473 14.8361 1.56336 15.5765 1.31006C16.2637 1.07306 17.2428 0.689062 17.8245 1.34206C18.2189 1.78606 18.3175 2.53006 18.3875 3.09806C18.4664 3.73206 18.4851 4.55806 18.278 5.37806C19.0698 6.41506 19.547 7.65206 19.547 9.00006C19.547 11.0421 18.4565 12.8151 16.8425 14.0431C16.0653 14.626 15.2039 15.0834 14.2888 15.3991C14.4998 15.8891 14.6171 16.4311 14.6171 17.0001V20.0001C14.6171 20.2653 14.5132 20.5196 14.3283 20.7072C14.1434 20.8947 13.8926 21.0001 13.6311 21.0001H7.71529C7.45379 21.0001 7.203 20.8947 7.0181 20.7072C6.83319 20.5196 6.72931 20.2653 6.72931 20.0001V19.0091C5.78771 19.1261 4.99794 19.0221 4.32649 18.7331C3.62448 18.4311 3.13543 17.9631 2.76766 17.5151C2.41863 17.0911 2.03804 16.1351 1.48787 15.9491C1.36499 15.9076 1.25137 15.8419 1.15351 15.7559C1.05564 15.6699 0.975444 15.5651 0.917489 15.4477C0.800443 15.2104 0.78111 14.9358 0.863743 14.6841C0.946376 14.4324 1.12421 14.2243 1.35811 14.1056C1.59202 13.9869 1.86284 13.9673 2.111 14.0511C2.76766 14.2731 3.19558 14.7531 3.48841 15.1391C3.96168 15.7591 4.34621 16.5691 5.09555 16.8921C5.40416 17.0251 5.85672 17.1121 6.56465 17.0141L6.72931 16.9801C6.73158 16.4359 6.84331 15.8979 7.05764 15.3991C6.14253 15.0834 5.28111 14.626 4.50397 14.0431C2.88992 12.8151 1.79943 11.0431 1.79943 9.00006C1.79943 7.65406 2.27566 6.41806 3.06543 5.38206C2.85837 4.56206 2.87612 3.73406 2.955 3.09906L2.95993 3.06106C3.0319 2.47906 3.11571 1.79406 3.51799 1.34206C4.09972 0.689062 5.07977 1.07406 5.76601 1.31106L5.767 1.31006Z" fill="white"/>
</svg>
