<svg width="20" height="18" viewBox="0 0 20 18" fill="none" xmlns="http://www.w3.org/2000/svg">
<path d="M4.65072 2.00002C4.65046 2.53046 4.44828 3.03906 4.08866 3.41394C3.72904 3.78883 3.24142 3.99929 2.73309 3.99902C2.22476 3.99876 1.73735 3.78779 1.37808 3.41253C1.01882 3.03727 0.817129 2.52846 0.817383 1.99802C0.817637 1.46759 1.01981 0.958988 1.37944 0.584103C1.73906 0.209218 2.22668 -0.00124153 2.73501 -0.000976312C3.24334 -0.000711096 3.73075 0.210257 4.09002 0.585517C4.44928 0.960777 4.65097 1.46959 4.65072 2.00002ZM4.70822 5.48002H0.874883V18H4.70822V5.48002ZM10.7649 5.48002H6.95072V18H10.7265V11.43C10.7265 7.77002 15.2978 7.43002 15.2978 11.43V18H19.0832V10.07C19.0832 3.90002 12.3174 4.13002 10.7265 7.16002L10.7649 5.48002Z" fill="white"/>
</svg>
