<svg width="22" height="19" viewBox="0 0 22 19" fill="none" xmlns="http://www.w3.org/2000/svg">
<path fill-rule="evenodd" clip-rule="evenodd" d="M19.4814 0.74019C19.7458 0.6289 20.0352 0.590517 20.3195 0.629035C20.6038 0.667553 20.8726 0.781565 21.0978 0.959203C21.3231 1.13684 21.4966 1.37161 21.6004 1.63908C21.7041 1.90654 21.7343 2.19693 21.6877 2.48001L19.261 17.2C19.0256 18.6199 17.4676 19.4342 16.1655 18.7269C15.0762 18.1352 13.4584 17.2235 12.0032 16.2723C11.2756 15.7962 9.04675 14.2714 9.32067 13.1864C9.55607 12.2587 13.3011 8.77268 15.4411 6.70009C16.281 5.88582 15.898 5.41609 14.9061 6.16509C12.4429 8.02475 8.48821 10.8528 7.18067 11.6488C6.02721 12.3508 5.42587 12.4706 4.70683 12.3508C3.39501 12.1325 2.17842 11.7944 1.18546 11.3824C-0.156324 10.826 -0.0910542 8.98133 1.18439 8.44419L19.4814 0.74019Z" fill="white"/>
</svg>
