<?xml version="1.0" encoding="UTF-8"?>
<svg id="Capa_1" data-name="Capa 1" xmlns="http://www.w3.org/2000/svg" viewBox="0 0 32 32">
  <path d="M17.92,0h-3.2l.96.96v6.39c0,.26-.1.5-.28.68-1.15,1.14-5.52,5.49-7.55,7.52-.25.25-.25.66,0,.9,2.02,2.02,6.4,6.38,7.55,7.52.18.18.28.42.28.68v6.39l-1.12.96h2.72l-.96-.96v-6.39c0-.25.1-.5.28-.68l7.37-7.37c.18-.18.42-.28.68-.28h6.07l1.28.96v-2.56l-1.28.96h-6.07c-.25,0-.5-.1-.68-.28l-7.37-7.37c-.18-.18-.28-.42-.28-.68V.96l1.6-.96Z" fill="#030303" stroke-width="0"/>
  <path d="M6.4,0C2.87,0,0,2.87,0,6.4v19.2c0,3.53,2.87,6.4,6.4,6.4h8.32c.53,0,.96-.43.96-.96v-6.39c0-.26-.1-.5-.28-.68-1.15-1.14-5.52-5.49-7.55-7.52-.25-.25-.25-.66,0-.9,2.02-2.02,6.4-6.38,7.55-7.52.18-.18.28-.42.28-.68V.96c0-.53-.43-.96-.96-.96H6.4Z" fill="#fff" stroke-width="0"/>
  <path d="M17.28,0c-.53,0-.96.43-.96.96v6.39c0,.25.1.5.28.68l7.37,7.37c.18.18.42.28.68.28h6.39c.53,0,.96-.43.96-.96V6.4c0-3.53-2.87-6.4-6.4-6.4h-8.32Z" fill="#fff" stroke-width="0"/>
  <path d="M32,17.28c0-.53-.43-.96-.96-.96h-6.39c-.25,0-.5.1-.68.28l-7.37,7.37c-.18.18-.28.42-.28.68v6.39c0,.53.43.96.96.96h8.32c3.53,0,6.4-2.87,6.4-6.4v-8.32Z" fill="#fff" stroke-width="0"/>
</svg>