<?xml version="1.0" encoding="UTF-8"?>
<svg id="Capa_1" data-name="Capa 1" xmlns="http://www.w3.org/2000/svg" xmlns:xlink="http://www.w3.org/1999/xlink" viewBox="0 0 238.57 500.22">
  <defs>
    <linearGradient id="Degradado_sin_nombre" data-name="Degradado sin nombre" x1="71.65" y1="250.11" x2="263.52" y2="250.11" gradientTransform="translate(263.52) rotate(-180) scale(1 -1)" gradientUnits="userSpaceOnUse">
      <stop offset="0" stop-color="#e14e87"/>
      <stop offset=".5" stop-color="#e8b125"/>
      <stop offset="1" stop-color="#2bc9ec"/>
    </linearGradient>
    <linearGradient id="Degradado_sin_nombre_5" data-name="Degradado sin nombre 5" x1="126.54" y1="602.22" x2="126.54" y2="-73.08" gradientTransform="translate(263.52 514.68) rotate(-180)" gradientUnits="userSpaceOnUse">
      <stop offset="0" stop-color="#fff" stop-opacity=".5"/>
      <stop offset=".5" stop-color="#000" stop-opacity="0"/>
      <stop offset="1" stop-color="#fff" stop-opacity=".5"/>
    </linearGradient>
    <linearGradient id="Degradado_sin_nombre-2" data-name="Degradado sin nombre" x1="24.95" y1="264.57" x2="228.12" y2="264.57" gradientTransform="translate(263.52 514.68) rotate(-180)" xlink:href="#Degradado_sin_nombre"/>
  </defs>
  <path id="RainbowWidthBGleft" d="M0,250.11c0,138.14,45.48,250.11,101.57,250.11.19,0,.38-.01.57-.02.19.01.38.02.57.02s.38-.01.57-.02c.2.01.38.02.58.02s.38-.01.57-.02c.19.01.38.02.57.02s.38-.01.57-.02c.19.01.38.02.57.02s.38-.01.57-.02c.19.01.38.02.57.02s.38-.01.57-.02c.19.01.38.02.57.02s.38-.01.57-.02c.2.01.38.02.58.02s.38-.01.57-.02c.19.01.38.02.57.02s.38-.01.57-.02c.19.01.38.02.57.02s.38-.01.57-.02c.19.01.38.02.57.02s.38-.01.57-.02c.19.01.38.02.57.02s.38-.01.57-.02c.19.01.38.02.57.02.2,0,.39-.01.58-.02.19.01.38.02.57.02s.38-.01.57-.02c.19.01.38.02.57.02s.38-.01.57-.02c.19.01.38.02.57.02s.38-.01.57-.02c.19.01.38.02.57.02s.38-.01.57-.02c.19.01.38.02.57.02.2,0,.38-.01.58-.02.19.01.38.02.57.02s.38-.01.57-.02c.19.01.38.02.57.02s.38-.01.57-.02c.19.01.38.02.57.02s.38-.01.57-.02c.19.01.38.02.57.02s.38-.01.57-.02c.19.01.38.02.57.02s.38-.01.57-.02c.2.01.38.02.58.02s.38-.01.57-.02c.19.01.38.02.57.02s.38-.01.57-.02c.19.01.38.02.57.02s.38-.01.57-.02c.19.01.38.02.57.02s.38-.01.57-.02c.19.01.38.02.57.02s.38-.01.57-.02c.2.01.38.02.58.02s.38-.01.57-.02c.19.01.38.02.57.02s.38-.01.57-.02c.19.01.38.02.57.02.12,0,.23,0,.35-.01-55.73-1.05-100.78-112.61-100.78-250.1,0-137.49,45.05-249.05,100.78-250.1-.12-.01-.23-.01-.35-.01-.19,0-.38.01-.57.02-.19-.01-.38-.02-.57-.02s-.38.01-.57.02c-.19-.01-.38-.02-.57-.02-.2,0-.38.01-.58.02-.19-.01-.38-.02-.57-.02s-.38.01-.57.02c-.19-.01-.38-.02-.57-.02s-.38.01-.57.02c-.19-.01-.38-.02-.57-.02s-.38.01-.57.02c-.19-.01-.38-.02-.57-.02s-.38.01-.57.02c-.19-.01-.38-.02-.57-.02-.2,0-.38.01-.58.02-.19-.01-.38-.02-.57-.02s-.38.01-.57.02c-.19-.01-.38-.02-.57-.02s-.38.01-.57.02c-.19-.01-.38-.02-.57-.02s-.38.01-.57.02c-.19-.01-.38-.02-.57-.02s-.38.01-.57.02c-.19-.01-.38-.02-.57-.02s-.38.01-.57.02c-.2-.01-.38-.02-.58-.02s-.38.01-.57.02c-.19-.01-.38-.02-.57-.02s-.38.01-.57.02c-.19-.01-.38-.02-.57-.02s-.38.01-.57.02c-.19-.01-.38-.02-.57-.02s-.38.01-.57.02c-.19-.01-.38-.02-.57-.02s-.38.01-.57.02c-.19-.01-.38-.02-.58-.02s-.38.01-.57.02c-.19-.01-.38-.02-.57-.02s-.38.01-.57.02c-.19-.01-.38-.02-.57-.02s-.38.01-.57.02c-.19-.01-.38-.02-.57-.02s-.38.01-.57.02c-.19-.01-.38-.02-.57-.02s-.38.01-.57.02c-.19-.01-.38-.02-.57-.02-.2,0-.38.01-.58.02-.19-.01-.38-.02-.57-.02s-.38.01-.57.02c-.19-.01-.38-.02-.57-.02s-.38.01-.57.02c-.19-.01-.38-.02-.57-.02s-.38.01-.57.02c-.19-.01-.38-.02-.57-.02s-.38.01-.57.02c-.19-.01-.38-.02-.57-.02-.2,0-.38.01-.58.02-.19-.01-.38-.02-.57-.02s-.38.01-.57.02c-.19-.01-.38-.02-.57-.02C45.48,0,0,111.97,0,250.11ZM91.71,376.8c-.48-1.88-.94-3.8-1.4-5.74.45,1.94.91,3.86,1.4,5.74ZM93.19,116.2c1-3.67,2.04-7.21,3.12-10.61-1.08,3.39-2.12,6.93-3.12,10.61ZM91.78,377.1c6.22,24.59,14.2,43.8,23.28,55.33-9.07-11.53-17.06-30.75-23.28-55.33ZM98.8,98.19c-.86,2.38-1.69,4.85-2.49,7.4.81-2.54,1.64-5.01,2.49-7.4ZM104.15,84.89c-1.55,3.37-3.03,7-4.46,10.85,1.44-3.85,2.92-7.47,4.46-10.85ZM105.08,82.88c.63-1.32,1.27-2.6,1.91-3.84-.65,1.24-1.29,2.52-1.91,3.84ZM108.93,75.46c-.66,1.15-1.31,2.34-1.94,3.58.64-1.23,1.29-2.43,1.94-3.58ZM108.94,75.45c1.98-3.46,4.02-6.54,6.12-9.21-2.11,2.67-4.15,5.75-6.12,9.21ZM134.87,444.57c31.51,0,57-87.41,57-195.24,0-107.84-25.51-195.23-57-195.23-6.97,0-13.65,4.29-19.81,12.14.7-.89,1.41-1.73,2.12-2.53,22.81,25.5,39.29,98.95,39.29,185.61,0,86.67-16.47,160.13-39.29,185.64-.71-.8-1.42-1.64-2.12-2.53,6.16,7.85,12.84,12.14,19.81,12.14Z" fill="url(#Degradado_sin_nombre)" stroke-width="0"/>
  <g>
    <path id="WhiteFillBaseLeft" d="M136.97,0c56.11,0,101.6,111.97,101.6,250.11s-45.48,250.11-101.6,250.11c-56.09,0-101.57-111.97-101.57-250.11C35.4,111.97,80.88,0,136.97,0ZM134.87,54.1c-31.46,0-57,87.4-57,195.23,0,107.83,25.54,195.24,57,195.24,31.51,0,57-87.41,57-195.24,0-107.83-25.51-195.23-57-195.23Z" shape-rendering="crispEdges" fill="rgba(255, 255, 255, .1)" stroke-width="0"/>
    <path id="GradientFillLeft" d="M136.97,0c56.11,0,101.6,111.97,101.6,250.11s-45.48,250.11-101.6,250.11c-56.09,0-101.57-111.97-101.57-250.11C35.4,111.97,80.88,0,136.97,0ZM134.87,54.1c-31.46,0-57,87.4-57,195.23,0,107.83,25.54,195.24,57,195.24,31.51,0,57-87.41,57-195.24,0-107.83-25.51-195.23-57-195.23Z" shape-rendering="crispEdges" fill="url(#Degradado_sin_nombre_5)" stroke-width="0"/>
    <path id="RainbowPathLeft" d="M65.86,73.54c9.17-22.58,20.07-40.79,32.13-53.36C110.05,7.63,123.22.77,136.97.77s26.93,6.86,38.99,19.42c12.06,12.56,22.96,30.78,32.14,53.36,18.34,45.15,29.7,107.57,29.7,176.57s-11.36,131.42-29.7,176.57c-9.17,22.57-20.07,40.79-32.14,53.36-12.06,12.56-25.24,19.42-38.99,19.42-13.75,0-26.92-6.86-38.98-19.42-12.06-12.56-22.96-30.78-32.13-53.36-18.34-45.15-29.7-107.57-29.7-176.57s11.36-131.42,29.7-176.57ZM175.92,111.06c-5.17-17.7-11.34-32.08-18.22-42.06-6.87-9.95-14.57-15.67-22.82-15.67s-15.95,5.72-22.81,15.67c-6.88,9.97-13.05,24.36-18.22,42.06-10.34,35.42-16.73,84.3-16.73,138.27s6.39,102.85,16.73,138.27c5.17,17.7,11.34,32.09,18.22,42.06,6.87,9.95,14.56,15.68,22.81,15.68,8.26,0,15.96-5.72,22.83-15.68,6.89-9.97,13.06-24.36,18.22-42.06,10.34-35.42,16.72-84.3,16.72-138.27s-6.38-102.85-16.72-138.27Z" shape-rendering="crispEdges" fill="none" stroke="url(#Degradado_sin_nombre-2)" stroke-width="1.54"/>
  </g>
</svg>