<?xml version="1.0" encoding="UTF-8"?>
<svg id="Capa_1" data-name="Capa 1" xmlns="http://www.w3.org/2000/svg" xmlns:xlink="http://www.w3.org/1999/xlink" viewBox="0 0 238.57 500.22">
  <defs>
    <linearGradient id="Degradado_sin_nombre_4" data-name="Degradado sin nombre 4" x1="46.7" y1="250.11" x2="238.57" y2="250.11" gradientUnits="userSpaceOnUse">
      <stop offset="0" stop-color="#e14e87"/>
      <stop offset=".5" stop-color="#e8b125"/>
      <stop offset="1" stop-color="#2bc9ec"/>
    </linearGradient>
    <linearGradient id="Degradado_sin_nombre_5" data-name="Degradado sin nombre 5" x1="101.59" y1="602.22" x2="101.59" y2="-73.08" gradientTransform="translate(0 514.68) scale(1 -1)" gradientUnits="userSpaceOnUse">
      <stop offset="0" stop-color="#fff" stop-opacity=".5"/>
      <stop offset=".5" stop-color="#000" stop-opacity="0"/>
      <stop offset="1" stop-color="#fff" stop-opacity=".5"/>
    </linearGradient>
    <linearGradient id="Degradado_sin_nombre_6" data-name="Degradado sin nombre 6" x1="0" y1="264.57" x2="203.17" y2="264.57" gradientTransform="translate(0 514.68) scale(1 -1)" gradientUnits="userSpaceOnUse">
      <stop offset="0" stop-color="#e14e87"/>
      <stop offset=".5" stop-color="#e8b125"/>
      <stop offset="1" stop-color="#2bc9ec"/>
    </linearGradient>
  </defs>
  <path id="RainbowWidthBG" d="M137,0c-.19,0-.38.01-.57.02-.19-.01-.38-.02-.57-.02s-.38.01-.57.02c-.2-.01-.38-.02-.58-.02s-.38.01-.57.02c-.19-.01-.38-.02-.57-.02s-.38.01-.57.02c-.19-.01-.38-.02-.57-.02s-.38.01-.57.02c-.19-.01-.38-.02-.57-.02s-.38.01-.57.02c-.19-.01-.38-.02-.57-.02s-.38.01-.57.02c-.2-.01-.38-.02-.58-.02s-.38.01-.57.02c-.19-.01-.38-.02-.57-.02s-.38.01-.57.02c-.19-.01-.38-.02-.57-.02s-.38.01-.57.02c-.19-.01-.38-.02-.57-.02s-.38.01-.57.02c-.19-.01-.38-.02-.57-.02s-.38.01-.57.02c-.19-.01-.38-.02-.57-.02-.2,0-.39.01-.58.02-.19-.01-.38-.02-.57-.02s-.38.01-.57.02c-.19-.01-.38-.02-.57-.02s-.38.01-.57.02c-.19-.01-.38-.02-.57-.02s-.38.01-.57.02c-.19-.01-.38-.02-.57-.02s-.38.01-.57.02c-.19-.01-.38-.02-.57-.02-.2,0-.38.01-.58.02-.19-.01-.38-.02-.57-.02s-.38.01-.57.02c-.19-.01-.38-.02-.57-.02s-.38.01-.57.02c-.19-.01-.38-.02-.57-.02s-.38.01-.57.02c-.19-.01-.38-.02-.57-.02s-.38.01-.57.02c-.19-.01-.38-.02-.57-.02s-.38.01-.57.02c-.2-.01-.38-.02-.58-.02s-.38.01-.57.02c-.19-.01-.38-.02-.57-.02s-.38.01-.57.02c-.19-.01-.38-.02-.57-.02s-.38.01-.57.02c-.19-.01-.38-.02-.57-.02s-.38.01-.57.02c-.19-.01-.38-.02-.57-.02s-.38.01-.57.02c-.2-.01-.38-.02-.58-.02s-.38.01-.57.02c-.19-.01-.38-.02-.57-.02s-.38.01-.57.02c-.19-.01-.38-.02-.57-.02-.12,0-.23,0-.35.01,55.73,1.05,100.78,112.61,100.78,250.1s-45.05,249.05-100.78,250.1c.12.01.23.01.35.01.19,0,.38-.01.57-.02.19.01.38.02.57.02s.38-.01.57-.02c.19.01.38.02.57.02.2,0,.38-.01.58-.02.19.01.38.02.57.02s.38-.01.57-.02c.19.01.38.02.57.02s.38-.01.57-.02c.19.01.38.02.57.02s.38-.01.57-.02c.19.01.38.02.57.02s.38-.01.57-.02c.19.01.38.02.57.02.2,0,.38-.01.58-.02.19.01.38.02.57.02s.38-.01.57-.02c.19.01.38.02.57.02s.38-.01.57-.02c.19.01.38.02.57.02s.38-.01.57-.02c.19.01.38.02.57.02s.38-.01.57-.02c.19.01.38.02.57.02s.38-.01.57-.02c.2.01.38.02.58.02s.38-.01.57-.02c.19.01.38.02.57.02s.38-.01.57-.02c.19.01.38.02.57.02s.38-.01.57-.02c.19.01.38.02.57.02s.38-.01.57-.02c.19.01.38.02.57.02s.38-.01.57-.02c.19.01.38.02.58.02s.38-.01.57-.02c.19.01.38.02.57.02s.38-.01.57-.02c.19.01.38.02.57.02s.38-.01.57-.02c.19.01.38.02.57.02s.38-.01.57-.02c.19.01.38.02.57.02s.38-.01.57-.02c.19.01.38.02.57.02.2,0,.38-.01.58-.02.19.01.38.02.57.02s.38-.01.57-.02c.19.01.38.02.57.02s.38-.01.57-.02c.19.01.38.02.57.02s.38-.01.57-.02c.19.01.38.02.57.02s.38-.01.57-.02c.19.01.38.02.57.02.2,0,.38-.01.58-.02.19.01.38.02.57.02s.38-.01.57-.02c.19.01.38.02.57.02,56.09,0,101.57-111.97,101.57-250.11S193.09,0,137,0ZM148.26,371.06c-.46,1.94-.92,3.86-1.4,5.74.49-1.88.95-3.8,1.4-5.74ZM142.26,105.59c1.08,3.4,2.12,6.94,3.12,10.61-1-3.68-2.04-7.22-3.12-10.61ZM123.51,432.43c9.08-11.53,17.06-30.74,23.28-55.33-6.22,24.58-14.21,43.8-23.28,55.33ZM142.26,105.59c-.8-2.55-1.63-5.02-2.49-7.4.85,2.39,1.68,4.86,2.49,7.4ZM138.88,95.74c-1.43-3.85-2.91-7.48-4.46-10.85,1.54,3.38,3.02,7,4.46,10.85ZM131.58,79.04c.64,1.24,1.28,2.52,1.91,3.84-.62-1.32-1.26-2.6-1.91-3.84ZM131.58,79.04c-.63-1.24-1.28-2.43-1.94-3.58.65,1.15,1.3,2.35,1.94,3.58ZM123.51,66.24c2.1,2.67,4.14,5.75,6.12,9.21-1.97-3.46-4.01-6.54-6.12-9.21ZM123.51,432.43c-.7.89-1.41,1.73-2.12,2.53-22.82-25.51-39.29-98.97-39.29-185.64s16.48-160.11,39.29-185.61c.71.8,1.42,1.64,2.12,2.53-6.16-7.85-12.84-12.14-19.81-12.14-31.49,0-57,87.39-57,195.23s25.49,195.24,57,195.24c6.97,0,13.65-4.29,19.81-12.14Z" fill="url(#Degradado_sin_nombre_4)" stroke-width="0"/>
  <g>
    <path id="WhiteFillBase" d="M203.17,250.11c0,138.14-45.48,250.11-101.57,250.11S0,388.25,0,250.11,45.48,0,101.6,0s101.57,111.97,101.57,250.11ZM46.69,249.33c0,107.83,25.49,195.24,57,195.24s57-87.41,57-195.24-25.54-195.23-57-195.23-57,87.4-57,195.23Z" shape-rendering="crispEdges" fill="rgba(255, 255, 255, .1)" stroke-width="0"/>
    <path id="GradientFill" d="M203.17,250.11c0,138.14-45.48,250.11-101.57,250.11S0,388.25,0,250.11,45.48,0,101.6,0s101.57,111.97,101.57,250.11ZM46.69,249.33c0,107.83,25.49,195.24,57,195.24s57-87.41,57-195.24-25.54-195.23-57-195.23-57,87.4-57,195.23Z" shape-rendering="crispEdges" fill="url(#Degradado_sin_nombre_5)" stroke-width="0"/>
    <path id="RainbowPath" d="M202.4,250.11c0,69-11.36,131.42-29.7,176.57-9.17,22.58-20.07,40.79-32.13,53.36-12.06,12.56-25.23,19.42-38.98,19.42s-26.93-6.86-38.99-19.42c-12.06-12.56-22.96-30.78-32.14-53.36C12.13,381.53.77,319.11.77,250.11S12.13,118.69,30.47,73.54c9.17-22.58,20.07-40.79,32.14-53.36C74.67,7.63,87.84.77,101.6.77s26.92,6.86,38.98,19.42c12.06,12.56,22.96,30.78,32.13,53.36,18.34,45.15,29.7,107.57,29.7,176.57ZM45.92,249.33c0,53.97,6.38,102.85,16.72,138.27,5.17,17.71,11.34,32.09,18.22,42.06,6.87,9.95,14.57,15.68,22.83,15.68s15.95-5.73,22.81-15.68c6.88-9.97,13.05-24.36,18.22-42.06,10.34-35.42,16.73-84.31,16.73-138.27s-6.39-102.85-16.73-138.27c-5.17-17.7-11.34-32.08-18.22-42.06-6.87-9.95-14.56-15.67-22.81-15.67s-15.95,5.72-22.82,15.67c-6.89,9.97-13.05,24.36-18.22,42.06-10.34,35.42-16.72,84.3-16.72,138.27Z" shape-rendering="crispEdges" fill="none" stroke="url(#Degradado_sin_nombre_6)" stroke-width="1.54"/>
  </g>
</svg>