<svg width="23" height="22" viewBox="0 0 23 22" fill="none" xmlns="http://www.w3.org/2000/svg">
<g clip-path="url(#clip0_28_98)">
<path d="M10.4219 3.09375V1.71875C10.4219 1.44525 10.5355 1.18294 10.7376 0.989546C10.9398 0.796149 11.2141 0.6875 11.5 0.6875C11.7859 0.6875 12.0602 0.796149 12.2623 0.989546C12.4645 1.18294 12.5781 1.44525 12.5781 1.71875V3.09375C12.5781 3.36725 12.4645 3.62956 12.2623 3.82295C12.0602 4.01635 11.7859 4.125 11.5 4.125C11.2141 4.125 10.9398 4.01635 10.7376 3.82295C10.5355 3.62956 10.4219 3.36725 10.4219 3.09375ZM17.6094 11C17.6094 12.1558 17.2511 13.2856 16.5798 14.2466C15.9085 15.2076 14.9543 15.9566 13.838 16.3989C12.7216 16.8412 11.4932 16.9569 10.3081 16.7315C9.12302 16.506 8.03443 15.9494 7.18002 15.1322C6.32561 14.3149 5.74375 13.2736 5.50802 12.1401C5.27228 11.0065 5.39327 9.8315 5.85567 8.76369C6.31808 7.69589 7.10113 6.78322 8.10581 6.1411C9.11049 5.49898 10.2917 5.15625 11.5 5.15625C13.1198 5.15784 14.6728 5.77403 15.8181 6.8696C16.9635 7.96517 17.6077 9.45063 17.6094 11ZM15.4531 11C15.4531 10.2521 15.2213 9.52107 14.7869 8.89925C14.3525 8.27743 13.7351 7.79277 13.0128 7.50658C12.2905 7.22039 11.4956 7.14551 10.7288 7.29141C9.96195 7.43731 9.25757 7.79743 8.70472 8.32625C8.15186 8.85507 7.77537 9.52882 7.62283 10.2623C7.4703 10.9958 7.54859 11.7561 7.84779 12.447C8.14699 13.138 8.65367 13.7285 9.30376 14.144C9.95385 14.5595 10.7181 14.7812 11.5 14.7812C12.5481 14.7801 13.5529 14.3814 14.294 13.6725C15.0351 12.9636 15.4519 12.0025 15.4531 11ZM4.62785 5.88586C4.72814 5.98179 4.8472 6.05788 4.97823 6.10979C5.10926 6.16171 5.2497 6.18843 5.39152 6.18843C5.53335 6.18843 5.67379 6.16171 5.80482 6.10979C5.93585 6.05788 6.05491 5.98179 6.1552 5.88586C6.25548 5.78993 6.33503 5.67605 6.38931 5.55072C6.44358 5.42538 6.47152 5.29105 6.47152 5.15539C6.47152 5.01973 6.44358 4.8854 6.38931 4.76006C6.33503 4.63473 6.25548 4.52085 6.1552 4.42492L5.07707 3.39367C4.87453 3.19994 4.59983 3.0911 4.3134 3.0911C4.02697 3.0911 3.75226 3.19994 3.54973 3.39367C3.34719 3.5874 3.2334 3.85016 3.2334 4.12414C3.2334 4.39812 3.34719 4.66088 3.54973 4.85461L4.62785 5.88586ZM4.62785 16.1124L3.54973 17.1437C3.44944 17.2396 3.36989 17.3535 3.31561 17.4788C3.26134 17.6041 3.2334 17.7385 3.2334 17.8741C3.2334 18.0098 3.26134 18.1441 3.31561 18.2695C3.36989 18.3948 3.44944 18.5087 3.54973 18.6046C3.75226 18.7983 4.02697 18.9072 4.3134 18.9072C4.45523 18.9072 4.59566 18.8805 4.7267 18.8285C4.85773 18.7766 4.97678 18.7005 5.07707 18.6046L6.1552 17.5734C6.35773 17.3796 6.47152 17.1169 6.47152 16.8429C6.47152 16.5689 6.35773 16.3062 6.1552 16.1124C5.95266 15.9187 5.67796 15.8099 5.39152 15.8099C5.10509 15.8099 4.83039 15.9187 4.62785 16.1124ZM17.6094 6.1875C17.751 6.18761 17.8913 6.16102 18.0221 6.10927C18.153 6.05751 18.2719 5.98159 18.3721 5.88586L19.4503 4.85461C19.5506 4.75868 19.6301 4.6448 19.6844 4.51947C19.7387 4.39413 19.7666 4.2598 19.7666 4.12414C19.7666 3.98848 19.7387 3.85415 19.6844 3.72881C19.6301 3.60348 19.5506 3.4896 19.4503 3.39367C19.35 3.29775 19.2309 3.22165 19.0999 3.16974C18.9689 3.11782 18.8284 3.0911 18.6866 3.0911C18.5448 3.0911 18.4043 3.11782 18.2733 3.16974C18.1423 3.22165 18.0232 3.29775 17.9229 3.39367L16.8448 4.42492C16.6931 4.56916 16.5897 4.75329 16.5478 4.9539C16.5058 5.1545 16.5271 5.36251 16.6091 5.55148C16.6911 5.74044 16.83 5.90181 17.0081 6.01507C17.1862 6.12832 17.3955 6.18835 17.6094 6.1875ZM18.3721 16.1141C18.1696 15.9204 17.8949 15.8116 17.6085 15.8116C17.322 15.8116 17.0473 15.9204 16.8448 16.1141C16.6423 16.3079 16.5285 16.5706 16.5285 16.8446C16.5285 17.1186 16.6423 17.3813 16.8448 17.5751L17.9229 18.6063C18.1255 18.8001 18.4002 18.9089 18.6866 18.9089C18.973 18.9089 19.2477 18.8001 19.4503 18.6063C19.6528 18.4126 19.7666 18.1498 19.7666 17.8759C19.7666 17.6019 19.6528 17.3391 19.4503 17.1454L18.3721 16.1141ZM4.3125 11C4.3125 10.7265 4.19891 10.4642 3.99672 10.2708C3.79454 10.0774 3.52031 9.96875 3.23438 9.96875H1.79688C1.51094 9.96875 1.23671 10.0774 1.03453 10.2708C0.832338 10.4642 0.71875 10.7265 0.71875 11C0.71875 11.2735 0.832338 11.5358 1.03453 11.7292C1.23671 11.9226 1.51094 12.0312 1.79688 12.0312H3.23438C3.52031 12.0312 3.79454 11.9226 3.99672 11.7292C4.19891 11.5358 4.3125 11.2735 4.3125 11ZM11.5 17.875C11.2141 17.875 10.9398 17.9837 10.7376 18.177C10.5355 18.3704 10.4219 18.6327 10.4219 18.9062V20.2812C10.4219 20.5548 10.5355 20.8171 10.7376 21.0105C10.9398 21.2038 11.2141 21.3125 11.5 21.3125C11.7859 21.3125 12.0602 21.2038 12.2623 21.0105C12.4645 20.8171 12.5781 20.5548 12.5781 20.2812V18.9062C12.5781 18.6327 12.4645 18.3704 12.2623 18.177C12.0602 17.9837 11.7859 17.875 11.5 17.875ZM21.2031 9.96875H19.7656C19.4797 9.96875 19.2055 10.0774 19.0033 10.2708C18.8011 10.4642 18.6875 10.7265 18.6875 11C18.6875 11.2735 18.8011 11.5358 19.0033 11.7292C19.2055 11.9226 19.4797 12.0312 19.7656 12.0312H21.2031C21.4891 12.0312 21.7633 11.9226 21.9655 11.7292C22.1677 11.5358 22.2812 11.2735 22.2812 11C22.2812 10.7265 22.1677 10.4642 21.9655 10.2708C21.7633 10.0774 21.4891 9.96875 21.2031 9.96875Z" fill="white"/>
</g>
<defs>
<clipPath id="clip0_28_98">
<rect width="23" height="22" fill="white"/>
</clipPath>
</defs>
</svg>
