<svg width="1728" height="818" viewBox="0 0 1728 818" fill="none" xmlns="http://www.w3.org/2000/svg">
<g opacity="0.3">
<path opacity="0.88" d="M-24 3L799.847 3C837.046 3 883.977 12.3567 930.534 29.055V29.055C1029.81 64.6636 1099.85 123.065 1085.97 158.673V158.673C1079.46 175.372 1054.97 184.728 1017.77 184.728L700.386 184.728C667.082 184.728 645.155 193.105 639.328 208.056V208.056C626.903 239.936 689.604 292.223 778.49 324.104V324.104C820.172 339.054 862.19 347.431 895.494 347.431L1752 347.431" stroke="url(#paint0_linear_241_1037)" stroke-width="8"/>
<path opacity="0.87" d="M-24 8.43115L799.847 8.43115C837.046 8.43115 883.977 17.7878 930.534 34.4862V34.4862C1029.81 70.0948 1099.85 128.496 1085.97 164.104V164.104C1079.46 180.803 1054.97 190.159 1017.77 190.159L700.386 190.159C667.082 190.159 645.155 198.537 639.328 213.487V213.487C626.903 245.367 689.604 297.654 778.49 329.535V329.535C820.172 344.485 862.19 352.862 895.494 352.862L1752 352.862" stroke="url(#paint1_linear_241_1037)" stroke-width="8"/>
<path opacity="0.86" d="M-24 13.8621L799.847 13.8621C837.046 13.8621 883.977 23.2188 930.534 39.9171V39.9171C1029.81 75.5257 1099.85 133.927 1085.97 169.535V169.535C1079.46 186.234 1054.97 195.59 1017.77 195.59L700.386 195.59C667.082 195.59 645.155 203.967 639.328 218.918V218.918C626.903 250.798 689.604 303.085 778.49 334.966V334.966C820.172 349.916 862.19 358.293 895.494 358.293L1752 358.293" stroke="url(#paint2_linear_241_1037)" stroke-width="8"/>
<path opacity="0.85" d="M-24 19.293L799.847 19.293C837.046 19.293 883.977 28.6497 930.534 45.348V45.348C1029.81 80.9566 1099.85 139.358 1085.97 174.966V174.966C1079.46 191.665 1054.97 201.021 1017.77 201.021L700.386 201.021C667.082 201.021 645.155 209.398 639.328 224.349V224.349C626.903 256.229 689.604 308.516 778.49 340.397V340.397C820.172 355.347 862.19 363.724 895.494 363.724L1752 363.724" stroke="url(#paint3_linear_241_1037)" stroke-width="8"/>
<path opacity="0.84" d="M-24 24.7241L799.847 24.7241C837.046 24.7241 883.977 34.0808 930.534 50.7791V50.7791C1029.81 86.3877 1099.85 144.789 1085.97 180.397V180.397C1079.46 197.096 1054.97 206.452 1017.77 206.452L700.386 206.452C667.082 206.452 645.155 214.83 639.328 229.78V229.78C626.903 261.66 689.604 313.947 778.49 345.828V345.828C820.172 360.778 862.19 369.155 895.494 369.155L1752 369.155" stroke="url(#paint4_linear_241_1037)" stroke-width="8"/>
<path opacity="0.83" d="M-24 30.1553L799.847 30.1553C837.046 30.1553 883.977 39.512 930.534 56.2103V56.2103C1029.81 91.8189 1099.85 150.22 1085.97 185.829V185.829C1079.46 202.527 1054.97 211.884 1017.77 211.884L700.386 211.884C667.082 211.884 645.155 220.261 639.328 235.211V235.211C626.903 267.091 689.604 319.378 778.49 351.259V351.259C820.172 366.209 862.19 374.586 895.494 374.586L1752 374.586" stroke="url(#paint5_linear_241_1037)" stroke-width="8"/>
<path opacity="0.82" d="M-24 35.5862L799.847 35.5862C837.046 35.5862 883.977 44.9429 930.534 61.6412V61.6412C1029.81 97.2498 1099.85 155.651 1085.97 191.259V191.259C1079.46 207.958 1054.97 217.315 1017.77 217.315L700.386 217.315C667.082 217.315 645.155 225.692 639.328 240.642V240.642C626.903 272.522 689.604 324.809 778.49 356.69V356.69C820.172 371.64 862.19 380.017 895.494 380.017L1752 380.017" stroke="url(#paint6_linear_241_1037)" stroke-width="8"/>
<path opacity="0.81" d="M-24 41.0171L799.847 41.0171C837.046 41.0171 883.977 50.3738 930.534 67.0721V67.0721C1029.81 102.681 1099.85 161.082 1085.97 196.69V196.69C1079.46 213.389 1054.97 222.745 1017.77 222.745L700.386 222.745C667.082 222.745 645.155 231.123 639.328 246.073V246.073C626.903 277.953 689.604 330.24 778.49 362.121V362.121C820.172 377.071 862.19 385.448 895.494 385.448L1752 385.448" stroke="url(#paint7_linear_241_1037)" stroke-width="8"/>
<path opacity="0.8" d="M-24 46.4482L799.847 46.4482C837.046 46.4482 883.977 55.8049 930.534 72.5033V72.5033C1029.81 108.112 1099.85 166.513 1085.97 202.122V202.122C1079.46 218.82 1054.97 228.177 1017.77 228.177L700.386 228.177C667.082 228.177 645.155 236.554 639.328 251.504V251.504C626.903 283.384 689.604 335.671 778.49 367.552V367.552C820.172 382.502 862.19 390.879 895.494 390.879L1752 390.879" stroke="url(#paint8_linear_241_1037)" stroke-width="8"/>
<path opacity="0.79" d="M-24 51.8794L799.847 51.8794C837.046 51.8794 883.977 61.2361 930.534 77.9344V77.9344C1029.81 113.543 1099.85 171.944 1085.97 207.553V207.553C1079.46 224.251 1054.97 233.608 1017.77 233.608L700.386 233.608C667.082 233.608 645.155 241.985 639.328 256.935V256.935C626.903 288.816 689.604 341.102 778.49 372.983V372.983C820.172 387.933 862.19 396.31 895.494 396.31L1752 396.31" stroke="url(#paint9_linear_241_1037)" stroke-width="8"/>
<path opacity="0.78" d="M-24 57.3103L799.847 57.3103C837.046 57.3103 883.977 66.667 930.534 83.3653V83.3653C1029.81 118.974 1099.85 177.375 1085.97 212.984V212.984C1079.46 229.682 1054.97 239.039 1017.77 239.039L700.386 239.039C667.082 239.039 645.155 247.416 639.328 262.366V262.366C626.903 294.246 689.604 346.533 778.49 378.414V378.414C820.172 393.364 862.19 401.741 895.494 401.741L1752 401.741" stroke="url(#paint10_linear_241_1037)" stroke-width="8"/>
<path opacity="0.77" d="M-24 62.7412L799.847 62.7412C837.046 62.7412 883.977 72.0979 930.534 88.7962V88.7962C1029.81 124.405 1099.85 182.806 1085.97 218.415V218.415C1079.46 235.113 1054.97 244.47 1017.77 244.47L700.386 244.47C667.082 244.47 645.155 252.847 639.328 267.797V267.797C626.903 299.677 689.604 351.964 778.49 383.845V383.845C820.172 398.795 862.19 407.172 895.494 407.172L1752 407.172" stroke="url(#paint11_linear_241_1037)" stroke-width="8"/>
<path opacity="0.76" d="M-24 68.1724L799.847 68.1724C837.046 68.1724 883.977 77.5291 930.534 94.2274V94.2274C1029.81 129.836 1099.85 188.237 1085.97 223.846V223.846C1079.46 240.544 1054.97 249.901 1017.77 249.901L700.386 249.901C667.082 249.901 645.155 258.278 639.328 273.228V273.228C626.903 305.109 689.604 357.395 778.49 389.276V389.276C820.172 404.226 862.19 412.603 895.494 412.603L1752 412.603" stroke="url(#paint12_linear_241_1037)" stroke-width="8"/>
<path opacity="0.75" d="M-24 73.6035L799.847 73.6035C837.046 73.6035 883.977 82.9602 930.534 99.6585V99.6585C1029.81 135.267 1099.85 193.668 1085.97 229.277V229.277C1079.46 245.975 1054.97 255.332 1017.77 255.332L700.386 255.332C667.082 255.332 645.155 263.709 639.328 278.659V278.659C626.903 310.54 689.604 362.827 778.49 394.707V394.707C820.172 409.657 862.19 418.034 895.494 418.034L1752 418.034" stroke="url(#paint13_linear_241_1037)" stroke-width="8"/>
<path opacity="0.74" d="M-24 79.0344L799.847 79.0344C837.046 79.0344 883.977 88.3911 930.534 105.089V105.089C1029.81 140.698 1099.85 199.099 1085.97 234.708V234.708C1079.46 251.406 1054.97 260.763 1017.77 260.763H700.386C667.082 260.763 645.155 269.14 639.328 284.09V284.09C626.903 315.971 689.604 368.258 778.49 400.138V400.138C820.172 415.088 862.19 423.465 895.494 423.465L1752 423.465" stroke="url(#paint14_linear_241_1037)" stroke-width="8"/>
<path opacity="0.73" d="M-24 84.4653L799.847 84.4653C837.046 84.4653 883.977 93.822 930.534 110.52V110.52C1029.81 146.129 1099.85 204.53 1085.97 240.139V240.139C1079.46 256.837 1054.97 266.194 1017.77 266.194H700.386C667.082 266.194 645.155 274.571 639.328 289.521V289.521C626.903 321.402 689.604 373.688 778.49 405.569V405.569C820.172 420.519 862.19 428.896 895.494 428.896L1752 428.896" stroke="url(#paint15_linear_241_1037)" stroke-width="8"/>
<path opacity="0.72" d="M-24 89.8965L799.847 89.8965C837.046 89.8965 883.977 99.2532 930.534 115.952V115.952C1029.81 151.56 1099.85 209.961 1085.97 245.57V245.57C1079.46 262.268 1054.97 271.625 1017.77 271.625H700.386C667.082 271.625 645.155 280.002 639.328 294.952V294.952C626.903 326.833 689.604 379.12 778.49 411V411C820.172 425.95 862.19 434.327 895.494 434.327L1752 434.327" stroke="url(#paint16_linear_241_1037)" stroke-width="8"/>
<path opacity="0.71" d="M-24 95.3276L799.847 95.3276C837.046 95.3276 883.977 104.684 930.534 121.383V121.383C1029.81 156.991 1099.85 215.392 1085.97 251.001V251.001C1079.46 267.699 1054.97 277.056 1017.77 277.056H700.386C667.082 277.056 645.155 285.433 639.328 300.383V300.383C626.903 332.264 689.604 384.551 778.49 416.431V416.431C820.172 431.381 862.19 439.759 895.494 439.759L1752 439.759" stroke="url(#paint17_linear_241_1037)" stroke-width="8"/>
<path opacity="0.7" d="M-24 100.759L799.847 100.759C837.046 100.759 883.977 110.115 930.534 126.814V126.814C1029.81 162.422 1099.85 220.823 1085.97 256.432V256.432C1079.46 273.13 1054.97 282.487 1017.77 282.487H700.386C667.082 282.487 645.155 290.864 639.328 305.814V305.814C626.903 337.695 689.604 389.982 778.49 421.862V421.862C820.172 436.812 862.19 445.189 895.494 445.189L1752 445.189" stroke="url(#paint18_linear_241_1037)" stroke-width="8"/>
<path opacity="0.69" d="M-24 106.189L799.847 106.189C837.046 106.189 883.977 115.546 930.534 132.244V132.244C1029.81 167.853 1099.85 226.254 1085.97 261.863V261.863C1079.46 278.561 1054.97 287.918 1017.77 287.918H700.386C667.082 287.918 645.155 296.295 639.328 311.245V311.245C626.903 343.126 689.604 395.413 778.49 427.293V427.293C820.172 442.243 862.19 450.62 895.494 450.62L1752 450.62" stroke="url(#paint19_linear_241_1037)" stroke-width="8"/>
<path opacity="0.68" d="M-24 111.621L799.847 111.621C837.046 111.621 883.977 120.977 930.534 137.676V137.676C1029.81 173.284 1099.85 231.685 1085.97 267.294V267.294C1079.46 283.992 1054.97 293.349 1017.77 293.349H700.386C667.082 293.349 645.155 301.726 639.328 316.676V316.676C626.903 348.557 689.604 400.844 778.49 432.724V432.724C820.172 447.674 862.19 456.052 895.494 456.052L1752 456.052" stroke="url(#paint20_linear_241_1037)" stroke-width="8"/>
<path opacity="0.67" d="M-24 117.052L799.847 117.052C837.046 117.052 883.977 126.408 930.534 143.107V143.107C1029.81 178.715 1099.85 237.116 1085.97 272.725V272.725C1079.46 289.423 1054.97 298.78 1017.77 298.78H700.386C667.082 298.78 645.155 307.157 639.328 322.107V322.107C626.903 353.988 689.604 406.275 778.49 438.155V438.155C820.172 453.106 862.19 461.483 895.494 461.483L1752 461.483" stroke="url(#paint21_linear_241_1037)" stroke-width="8"/>
<path opacity="0.66" d="M-24 122.483L799.847 122.483C837.046 122.483 883.977 131.839 930.534 148.538V148.538C1029.81 184.146 1099.85 242.547 1085.97 278.156V278.156C1079.46 294.854 1054.97 304.211 1017.77 304.211H700.386C667.082 304.211 645.155 312.588 639.328 327.538V327.538C626.903 359.419 689.604 411.706 778.49 443.586V443.586C820.172 458.537 862.19 466.914 895.494 466.914L1752 466.914" stroke="url(#paint22_linear_241_1037)" stroke-width="8"/>
<path opacity="0.65" d="M-24 127.914L799.847 127.914C837.046 127.914 883.977 137.27 930.534 153.969V153.969C1029.81 189.577 1099.85 247.978 1085.97 283.587V283.587C1079.46 300.285 1054.97 309.642 1017.77 309.642H700.386C667.082 309.642 645.155 318.019 639.328 332.969V332.969C626.903 364.85 689.604 417.137 778.49 449.017V449.017C820.172 463.967 862.19 472.345 895.494 472.345L1752 472.345" stroke="url(#paint23_linear_241_1037)" stroke-width="8"/>
<path opacity="0.64" d="M-24 133.345L799.847 133.345C837.046 133.345 883.977 142.701 930.534 159.4V159.4C1029.81 195.008 1099.85 253.409 1085.97 289.018V289.018C1079.46 305.716 1054.97 315.073 1017.77 315.073H700.386C667.082 315.073 645.155 323.45 639.328 338.4V338.4C626.903 370.281 689.604 422.568 778.49 454.448V454.448C820.172 469.399 862.19 477.776 895.494 477.776L1752 477.776" stroke="url(#paint24_linear_241_1037)" stroke-width="8"/>
<path opacity="0.63" d="M-24 138.776L799.847 138.776C837.046 138.776 883.977 148.133 930.534 164.831V164.831C1029.81 200.439 1099.85 258.841 1085.97 294.449V294.449C1079.46 311.148 1054.97 320.504 1017.77 320.504H700.386C667.082 320.504 645.155 328.881 639.328 343.831V343.831C626.903 375.712 689.604 427.999 778.49 459.88V459.88C820.172 474.83 862.19 483.207 895.494 483.207L1752 483.207" stroke="url(#paint25_linear_241_1037)" stroke-width="8"/>
<path opacity="0.62" d="M-24 144.207L799.847 144.207C837.046 144.207 883.977 153.563 930.534 170.262V170.262C1029.81 205.87 1099.85 264.272 1085.97 299.88V299.88C1079.46 316.578 1054.97 325.935 1017.77 325.935H700.386C667.082 325.935 645.155 334.312 639.328 349.262V349.262C626.903 381.143 689.604 433.43 778.49 465.31V465.31C820.172 480.261 862.19 488.638 895.494 488.638L1752 488.638" stroke="url(#paint26_linear_241_1037)" stroke-width="8"/>
<path opacity="0.61" d="M-24 149.638L799.847 149.638C837.046 149.638 883.977 158.994 930.534 175.693V175.693C1029.81 211.301 1099.85 269.702 1085.97 305.311V305.311C1079.46 322.009 1054.97 331.366 1017.77 331.366H700.386C667.082 331.366 645.155 339.743 639.328 354.693V354.693C626.903 386.574 689.604 438.861 778.49 470.741V470.741C820.172 485.692 862.19 494.069 895.494 494.069L1752 494.069" stroke="url(#paint27_linear_241_1037)" stroke-width="8"/>
<path opacity="0.6" d="M-24 155.069L799.847 155.069C837.046 155.069 883.977 164.426 930.534 181.124V181.124C1029.81 216.732 1099.85 275.134 1085.97 310.742V310.742C1079.46 327.44 1054.97 336.797 1017.77 336.797H700.386C667.082 336.797 645.155 345.174 639.328 360.124V360.124C626.903 392.005 689.604 444.292 778.49 476.173V476.173C820.172 491.123 862.19 499.5 895.494 499.5L1752 499.5" stroke="url(#paint28_linear_241_1037)" stroke-width="8"/>
<path opacity="0.59" d="M-24 160.5L799.847 160.5C837.046 160.5 883.977 169.857 930.534 186.555V186.555C1029.81 222.164 1099.85 280.565 1085.97 316.173V316.173C1079.46 332.872 1054.97 342.228 1017.77 342.228H700.386C667.082 342.228 645.155 350.605 639.328 365.556V365.556C626.903 397.436 689.604 449.723 778.49 481.604V481.604C820.172 496.554 862.19 504.931 895.494 504.931L1752 504.931" stroke="url(#paint29_linear_241_1037)" stroke-width="8"/>
<path opacity="0.58" d="M-24 165.931L799.847 165.931C837.046 165.931 883.977 175.288 930.534 191.986V191.986C1029.81 227.595 1099.85 285.996 1085.97 321.604V321.604C1079.46 338.303 1054.97 347.659 1017.77 347.659H700.386C667.082 347.659 645.155 356.036 639.328 370.986V370.986C626.903 402.867 689.604 455.154 778.49 487.035V487.035C820.172 501.985 862.19 510.362 895.494 510.362L1752 510.362" stroke="url(#paint30_linear_241_1037)" stroke-width="8"/>
<path opacity="0.57" d="M-24 171.362L799.847 171.362C837.046 171.362 883.977 180.719 930.534 197.417V197.417C1029.81 233.025 1099.85 291.427 1085.97 327.035V327.035C1079.46 343.733 1054.97 353.09 1017.77 353.09H700.386C667.082 353.09 645.155 361.467 639.328 376.417V376.417C626.903 408.298 689.604 460.585 778.49 492.466V492.466C820.172 507.416 862.19 515.793 895.494 515.793L1752 515.793" stroke="url(#paint31_linear_241_1037)" stroke-width="8"/>
<path opacity="0.56" d="M-24 176.793L799.847 176.793C837.046 176.793 883.977 186.15 930.534 202.848V202.848C1029.81 238.457 1099.85 296.858 1085.97 332.466V332.466C1079.46 349.165 1054.97 358.521 1017.77 358.521H700.386C667.082 358.521 645.155 366.898 639.328 381.849V381.849C626.903 413.729 689.604 466.016 778.49 497.897V497.897C820.172 512.847 862.19 521.224 895.494 521.224L1752 521.224" stroke="url(#paint32_linear_241_1037)" stroke-width="8"/>
<path opacity="0.55" d="M-24 182.224L799.847 182.224C837.046 182.224 883.977 191.581 930.534 208.279V208.279C1029.81 243.888 1099.85 302.289 1085.97 337.897V337.897C1079.46 354.596 1054.97 363.952 1017.77 363.952H700.386C667.082 363.952 645.155 372.33 639.328 387.28V387.28C626.903 419.16 689.604 471.447 778.49 503.328V503.328C820.172 518.278 862.19 526.655 895.494 526.655L1752 526.655" stroke="url(#paint33_linear_241_1037)" stroke-width="8"/>
<path opacity="0.54" d="M-24 187.655L799.847 187.655C837.046 187.655 883.977 197.012 930.534 213.71V213.71C1029.81 249.319 1099.85 307.72 1085.97 343.328V343.328C1079.46 360.027 1054.97 369.383 1017.77 369.383H700.386C667.082 369.383 645.155 377.76 639.328 392.711V392.711C626.903 424.591 689.604 476.878 778.49 508.759V508.759C820.172 523.709 862.19 532.086 895.494 532.086L1752 532.086" stroke="url(#paint34_linear_241_1037)" stroke-width="8"/>
<path opacity="0.53" d="M-24 193.086L799.847 193.086C837.046 193.086 883.977 202.443 930.534 219.141V219.141C1029.81 254.75 1099.85 313.151 1085.97 348.759V348.759C1079.46 365.458 1054.97 374.814 1017.77 374.814H700.386C667.082 374.814 645.155 383.191 639.328 398.142V398.142C626.903 430.022 689.604 482.309 778.49 514.19V514.19C820.172 529.14 862.19 537.517 895.494 537.517L1752 537.517" stroke="url(#paint35_linear_241_1037)" stroke-width="8"/>
<path opacity="0.52" d="M-24 198.517L799.847 198.517C837.046 198.517 883.977 207.874 930.534 224.572V224.572C1029.81 260.181 1099.85 318.582 1085.97 354.19V354.19C1079.46 370.889 1054.97 380.245 1017.77 380.245H700.386C667.082 380.245 645.155 388.623 639.328 403.573V403.573C626.903 435.453 689.604 487.74 778.49 519.621V519.621C820.172 534.571 862.19 542.948 895.494 542.948L1752 542.948" stroke="url(#paint36_linear_241_1037)" stroke-width="8"/>
<path opacity="0.51" d="M-24 203.948L799.847 203.948C837.046 203.948 883.977 213.305 930.534 230.003V230.003C1029.81 265.612 1099.85 324.013 1085.97 359.622V359.622C1079.46 376.32 1054.97 385.677 1017.77 385.677H700.386C667.082 385.677 645.155 394.054 639.328 409.004V409.004C626.903 440.884 689.604 493.171 778.49 525.052V525.052C820.172 540.002 862.19 548.379 895.494 548.379L1752 548.379" stroke="url(#paint37_linear_241_1037)" stroke-width="8"/>
<path opacity="0.5" d="M-24 209.379L799.847 209.379C837.046 209.379 883.977 218.736 930.534 235.434V235.434C1029.81 271.043 1099.85 329.444 1085.97 365.052V365.052C1079.46 381.751 1054.97 391.107 1017.77 391.107H700.386C667.082 391.107 645.155 399.485 639.328 414.435V414.435C626.903 446.315 689.604 498.602 778.49 530.483V530.483C820.172 545.433 862.19 553.81 895.494 553.81L1752 553.81" stroke="url(#paint38_linear_241_1037)" stroke-width="8"/>
<path opacity="0.49" d="M-24 214.81L799.847 214.81C837.046 214.81 883.977 224.167 930.534 240.865V240.865C1029.81 276.474 1099.85 334.875 1085.97 370.483V370.483C1079.46 387.182 1054.97 396.538 1017.77 396.538H700.386C667.082 396.538 645.155 404.915 639.328 419.866V419.866C626.903 451.746 689.604 504.033 778.49 535.914V535.914C820.172 550.864 862.19 559.241 895.494 559.241L1752 559.241" stroke="url(#paint39_linear_241_1037)" stroke-width="8"/>
<path opacity="0.48" d="M-24 220.241L799.847 220.241C837.046 220.241 883.977 229.598 930.534 246.296V246.296C1029.81 281.905 1099.85 340.306 1085.97 375.915V375.915C1079.46 392.613 1054.97 401.97 1017.77 401.97H700.386C667.082 401.97 645.155 410.347 639.328 425.297V425.297C626.903 457.177 689.604 509.464 778.49 541.345V541.345C820.172 556.295 862.19 564.672 895.494 564.672L1752 564.672" stroke="url(#paint40_linear_241_1037)" stroke-width="8"/>
<path opacity="0.47" d="M-24 225.672L799.847 225.672C837.046 225.672 883.977 235.029 930.534 251.727V251.727C1029.81 287.336 1099.85 345.737 1085.97 381.346V381.346C1079.46 398.044 1054.97 407.401 1017.77 407.401H700.386C667.082 407.401 645.155 415.778 639.328 430.728V430.728C626.903 462.609 689.604 514.895 778.49 546.776V546.776C820.172 561.726 862.19 570.103 895.494 570.103L1752 570.103" stroke="url(#paint41_linear_241_1037)" stroke-width="8"/>
<path opacity="0.46" d="M-24 231.103L799.847 231.103C837.046 231.103 883.977 240.46 930.534 257.158V257.158C1029.81 292.767 1099.85 351.168 1085.97 386.777V386.777C1079.46 403.475 1054.97 412.832 1017.77 412.832H700.386C667.082 412.832 645.155 421.209 639.328 436.159V436.159C626.903 468.039 689.604 520.326 778.49 552.207V552.207C820.172 567.157 862.19 575.534 895.494 575.534L1752 575.534" stroke="url(#paint42_linear_241_1037)" stroke-width="8"/>
<path opacity="0.45" d="M-24 236.534L799.847 236.534C837.046 236.534 883.977 245.891 930.534 262.589V262.589C1029.81 298.198 1099.85 356.599 1085.97 392.207V392.207C1079.46 408.906 1054.97 418.263 1017.77 418.263H700.386C667.082 418.263 645.155 426.64 639.328 441.59V441.59C626.903 473.47 689.604 525.757 778.49 557.638V557.638C820.172 572.588 862.19 580.965 895.494 580.965L1752 580.965" stroke="url(#paint43_linear_241_1037)" stroke-width="8"/>
<path opacity="0.44" d="M-24 241.965L799.847 241.965C837.046 241.965 883.977 251.322 930.534 268.02V268.02C1029.81 303.629 1099.85 362.03 1085.97 397.639V397.639C1079.46 414.337 1054.97 423.694 1017.77 423.694H700.386C667.082 423.694 645.155 432.071 639.328 447.021V447.021C626.903 478.902 689.604 531.188 778.49 563.069V563.069C820.172 578.019 862.19 586.396 895.494 586.396L1752 586.396" stroke="url(#paint44_linear_241_1037)" stroke-width="8"/>
<path opacity="0.43" d="M-24 247.396L799.847 247.396C837.046 247.396 883.977 256.753 930.534 273.452V273.452C1029.81 309.06 1099.85 367.461 1085.97 403.07V403.07C1079.46 419.768 1054.97 429.125 1017.77 429.125H700.386C667.082 429.125 645.155 437.502 639.328 452.452V452.452C626.903 484.333 689.604 536.62 778.49 568.5V568.5C820.172 583.45 862.19 591.827 895.494 591.827L1752 591.827" stroke="url(#paint45_linear_241_1037)" stroke-width="8"/>
<path opacity="0.42" d="M-24 252.827L799.847 252.827C837.046 252.827 883.977 262.184 930.534 278.882V278.882C1029.81 314.491 1099.85 372.892 1085.97 408.501V408.501C1079.46 425.199 1054.97 434.556 1017.77 434.556H700.386C667.082 434.556 645.155 442.933 639.328 457.883V457.883C626.903 489.764 689.604 542.05 778.49 573.931V573.931C820.172 588.881 862.19 597.258 895.494 597.258L1752 597.258" stroke="url(#paint46_linear_241_1037)" stroke-width="8"/>
<path opacity="0.41" d="M-24 258.258L799.847 258.258C837.046 258.258 883.977 267.615 930.534 284.313V284.313C1029.81 319.922 1099.85 378.323 1085.97 413.932V413.932C1079.46 430.63 1054.97 439.987 1017.77 439.987H700.386C667.082 439.987 645.155 448.364 639.328 463.314V463.314C626.903 495.194 689.604 547.481 778.49 579.362V579.362C820.172 594.312 862.19 602.689 895.494 602.689L1752 602.689" stroke="url(#paint47_linear_241_1037)" stroke-width="8"/>
<path opacity="0.4" d="M-24 263.689L799.847 263.689C837.046 263.689 883.977 273.046 930.534 289.744V289.744C1029.81 325.353 1099.85 383.754 1085.97 419.363V419.363C1079.46 436.061 1054.97 445.418 1017.77 445.418H700.386C667.082 445.418 645.155 453.795 639.328 468.745V468.745C626.903 500.626 689.604 552.913 778.49 584.793V584.793C820.172 599.743 862.19 608.12 895.494 608.12L1752 608.12" stroke="url(#paint48_linear_241_1037)" stroke-width="8"/>
<path opacity="0.39" d="M-24 269.121L799.847 269.121C837.046 269.121 883.977 278.477 930.534 295.176V295.176C1029.81 330.784 1099.85 389.185 1085.97 424.794V424.794C1079.46 441.492 1054.97 450.849 1017.77 450.849H700.386C667.082 450.849 645.155 459.226 639.328 474.176V474.176C626.903 506.057 689.604 558.344 778.49 590.224V590.224C820.172 605.174 862.19 613.552 895.494 613.552L1752 613.552" stroke="url(#paint49_linear_241_1037)" stroke-width="8"/>
<path opacity="0.38" d="M-24 274.552L799.847 274.552C837.046 274.552 883.977 283.908 930.534 300.607V300.607C1029.81 336.215 1099.85 394.616 1085.97 430.225V430.225C1079.46 446.923 1054.97 456.28 1017.77 456.28H700.386C667.082 456.28 645.155 464.657 639.328 479.607V479.607C626.903 511.488 689.604 563.775 778.49 595.655V595.655C820.172 610.605 862.19 618.982 895.494 618.982L1752 618.982" stroke="url(#paint50_linear_241_1037)" stroke-width="8"/>
<path opacity="0.37" d="M-24 279.982L799.847 279.982C837.046 279.982 883.977 289.339 930.534 306.037V306.037C1029.81 341.646 1099.85 400.047 1085.97 435.656V435.656C1079.46 452.354 1054.97 461.711 1017.77 461.711H700.386C667.082 461.711 645.155 470.088 639.328 485.038V485.038C626.903 516.919 689.604 569.206 778.49 601.086V601.086C820.172 616.036 862.19 624.413 895.494 624.413L1752 624.413" stroke="url(#paint51_linear_241_1037)" stroke-width="8"/>
<path opacity="0.36" d="M-24 285.414L799.847 285.414C837.046 285.414 883.977 294.77 930.534 311.469V311.469C1029.81 347.077 1099.85 405.478 1085.97 441.087V441.087C1079.46 457.785 1054.97 467.142 1017.77 467.142H700.386C667.082 467.142 645.155 475.519 639.328 490.469V490.469C626.903 522.35 689.604 574.637 778.49 606.517V606.517C820.172 621.467 862.19 629.845 895.494 629.845L1752 629.845" stroke="url(#paint52_linear_241_1037)" stroke-width="8"/>
<path opacity="0.35" d="M-24 290.845L799.847 290.845C837.046 290.845 883.977 300.201 930.534 316.9V316.9C1029.81 352.508 1099.85 410.909 1085.97 446.518V446.518C1079.46 463.216 1054.97 472.573 1017.77 472.573H700.386C667.082 472.573 645.155 480.95 639.328 495.9V495.9C626.903 527.781 689.604 580.068 778.49 611.948V611.948C820.172 626.899 862.19 635.276 895.494 635.276L1752 635.276" stroke="url(#paint53_linear_241_1037)" stroke-width="8"/>
<path opacity="0.34" d="M-24 296.276L799.847 296.276C837.046 296.276 883.977 305.632 930.534 322.331V322.331C1029.81 357.939 1099.85 416.34 1085.97 451.949V451.949C1079.46 468.647 1054.97 478.004 1017.77 478.004H700.386C667.082 478.004 645.155 486.381 639.328 501.331V501.331C626.903 533.212 689.604 585.499 778.49 617.379V617.379C820.172 632.329 862.19 640.707 895.494 640.707L1752 640.707" stroke="url(#paint54_linear_241_1037)" stroke-width="8"/>
<path opacity="0.33" d="M-24 301.707L799.847 301.707C837.046 301.707 883.977 311.063 930.534 327.762V327.762C1029.81 363.37 1099.85 421.771 1085.97 457.38V457.38C1079.46 474.078 1054.97 483.435 1017.77 483.435H700.386C667.082 483.435 645.155 491.812 639.328 506.762V506.762C626.903 538.643 689.604 590.93 778.49 622.81V622.81C820.172 637.76 862.19 646.137 895.494 646.137L1752 646.137" stroke="url(#paint55_linear_241_1037)" stroke-width="8"/>
<path opacity="0.32" d="M-24 307.138L799.847 307.138C837.046 307.138 883.977 316.494 930.534 333.193V333.193C1029.81 368.801 1099.85 427.202 1085.97 462.811V462.811C1079.46 479.509 1054.97 488.866 1017.77 488.866H700.386C667.082 488.866 645.155 497.243 639.328 512.193V512.193C626.903 544.074 689.604 596.361 778.49 628.241V628.241C820.172 643.192 862.19 651.569 895.494 651.569L1752 651.569" stroke="url(#paint56_linear_241_1037)" stroke-width="8"/>
<path opacity="0.31" d="M-24 312.569L799.847 312.569C837.046 312.569 883.977 321.926 930.534 338.624V338.624C1029.81 374.232 1099.85 432.634 1085.97 468.242V468.242C1079.46 484.94 1054.97 494.297 1017.77 494.297H700.386C667.082 494.297 645.155 502.674 639.328 517.624V517.624C626.903 549.505 689.604 601.792 778.49 633.673V633.673C820.172 648.623 862.19 657 895.494 657L1752 657" stroke="url(#paint57_linear_241_1037)" stroke-width="8"/>
<path opacity="0.3" d="M-24 318L799.847 318C837.046 318 883.977 327.356 930.534 344.055V344.055C1029.81 379.663 1099.85 438.064 1085.97 473.673V473.673C1079.46 490.371 1054.97 499.728 1017.77 499.728H700.386C667.082 499.728 645.155 508.105 639.328 523.055V523.055C626.903 554.936 689.604 607.223 778.49 639.103V639.103C820.172 654.054 862.19 662.431 895.494 662.431L1752 662.431" stroke="url(#paint58_linear_241_1037)" stroke-width="8"/>
<path opacity="0.29" d="M-24 323.431L799.847 323.431C837.046 323.431 883.977 332.787 930.534 349.486V349.486C1029.81 385.094 1099.85 443.495 1085.97 479.104V479.104C1079.46 495.802 1054.97 505.159 1017.77 505.159H700.386C667.082 505.159 645.155 513.536 639.328 528.486V528.486C626.903 560.367 689.604 612.654 778.49 644.534V644.534C820.172 659.485 862.19 667.862 895.494 667.862L1752 667.862" stroke="url(#paint59_linear_241_1037)" stroke-width="8"/>
<path opacity="0.28" d="M-24 328.862L799.847 328.862C837.046 328.862 883.977 338.219 930.534 354.917V354.917C1029.81 390.525 1099.85 448.927 1085.97 484.535V484.535C1079.46 501.233 1054.97 510.59 1017.77 510.59H700.386C667.082 510.59 645.155 518.967 639.328 533.917V533.917C626.903 565.798 689.604 618.085 778.49 649.966V649.966C820.172 664.916 862.19 673.293 895.494 673.293L1752 673.293" stroke="url(#paint60_linear_241_1037)" stroke-width="8"/>
<path opacity="0.27" d="M-24 334.293L799.847 334.293C837.046 334.293 883.977 343.65 930.534 360.348V360.348C1029.81 395.957 1099.85 454.358 1085.97 489.966V489.966C1079.46 506.665 1054.97 516.021 1017.77 516.021H700.386C667.082 516.021 645.155 524.398 639.328 539.349V539.349C626.903 571.229 689.604 623.516 778.49 655.397V655.397C820.172 670.347 862.19 678.724 895.494 678.724L1752 678.724" stroke="url(#paint61_linear_241_1037)" stroke-width="8"/>
<path opacity="0.26" d="M-24 339.724L799.847 339.724C837.046 339.724 883.977 349.081 930.534 365.779V365.779C1029.81 401.387 1099.85 459.789 1085.97 495.397V495.397C1079.46 512.096 1054.97 521.452 1017.77 521.452H700.386C667.082 521.452 645.155 529.829 639.328 544.779V544.779C626.903 576.66 689.604 628.947 778.49 660.828V660.828C820.172 675.778 862.19 684.155 895.494 684.155L1752 684.155" stroke="url(#paint62_linear_241_1037)" stroke-width="8"/>
<path opacity="0.25" d="M-24 345.155L799.847 345.155C837.046 345.155 883.977 354.511 930.534 371.21V371.21C1029.81 406.818 1099.85 465.22 1085.97 500.828V500.828C1079.46 517.526 1054.97 526.883 1017.77 526.883H700.386C667.082 526.883 645.155 535.26 639.328 550.21V550.21C626.903 582.091 689.604 634.378 778.49 666.258V666.258C820.172 681.209 862.19 689.586 895.494 689.586L1752 689.586" stroke="url(#paint63_linear_241_1037)" stroke-width="8"/>
<path opacity="0.24" d="M-24 350.586L799.847 350.586C837.046 350.586 883.977 359.943 930.534 376.641V376.641C1029.81 412.25 1099.85 470.651 1085.97 506.259V506.259C1079.46 522.958 1054.97 532.314 1017.77 532.314H700.386C667.082 532.314 645.155 540.691 639.328 555.642V555.642C626.903 587.522 689.604 639.809 778.49 671.69V671.69C820.172 686.64 862.19 695.017 895.494 695.017L1752 695.017" stroke="url(#paint64_linear_241_1037)" stroke-width="8"/>
<path opacity="0.23" d="M-24 356.017L799.847 356.017C837.046 356.017 883.977 365.374 930.534 382.072V382.072C1029.81 417.681 1099.85 476.082 1085.97 511.69V511.69C1079.46 528.389 1054.97 537.745 1017.77 537.745H700.386C667.082 537.745 645.155 546.123 639.328 561.073V561.073C626.903 592.953 689.604 645.24 778.49 677.121V677.121C820.172 692.071 862.19 700.448 895.494 700.448L1752 700.448" stroke="url(#paint65_linear_241_1037)" stroke-width="8"/>
<path opacity="0.22" d="M-24 361.448L799.847 361.448C837.046 361.448 883.977 370.805 930.534 387.503V387.503C1029.81 423.112 1099.85 481.513 1085.97 517.121V517.121C1079.46 533.82 1054.97 543.176 1017.77 543.176H700.386C667.082 543.176 645.155 551.553 639.328 566.504V566.504C626.903 598.384 689.604 650.671 778.49 682.552V682.552C820.172 697.502 862.19 705.879 895.494 705.879L1752 705.879" stroke="url(#paint66_linear_241_1037)" stroke-width="8"/>
<path opacity="0.21" d="M-24 366.879L799.847 366.879C837.046 366.879 883.977 376.236 930.534 392.934V392.934C1029.81 428.543 1099.85 486.944 1085.97 522.552V522.552C1079.46 539.251 1054.97 548.607 1017.77 548.607H700.386C667.082 548.607 645.155 556.984 639.328 571.934V571.934C626.903 603.815 689.604 656.102 778.49 687.983V687.983C820.172 702.933 862.19 711.31 895.494 711.31L1752 711.31" stroke="url(#paint67_linear_241_1037)" stroke-width="8"/>
<path opacity="0.2" d="M-24 372.31L799.847 372.31C837.046 372.31 883.977 381.667 930.534 398.365V398.365C1029.81 433.974 1099.85 492.375 1085.97 527.983V527.983C1079.46 544.682 1054.97 554.038 1017.77 554.038H700.386C667.082 554.038 645.155 562.415 639.328 577.366V577.366C626.903 609.246 689.604 661.533 778.49 693.414V693.414C820.172 708.364 862.19 716.741 895.494 716.741L1752 716.741" stroke="url(#paint68_linear_241_1037)" stroke-width="8"/>
<path opacity="0.19" d="M-24 377.741L799.847 377.741C837.046 377.741 883.977 387.098 930.534 403.796V403.796C1029.81 439.405 1099.85 497.806 1085.97 533.415V533.415C1079.46 550.113 1054.97 559.47 1017.77 559.47H700.386C667.082 559.47 645.155 567.847 639.328 582.797V582.797C626.903 614.677 689.604 666.964 778.49 698.845V698.845C820.172 713.795 862.19 722.172 895.494 722.172L1752 722.172" stroke="url(#paint69_linear_241_1037)" stroke-width="8"/>
<path opacity="0.18" d="M-24 383.172L799.847 383.172C837.046 383.172 883.977 392.529 930.534 409.227V409.227C1029.81 444.836 1099.85 503.237 1085.97 538.845V538.845C1079.46 555.544 1054.97 564.9 1017.77 564.9H700.386C667.082 564.9 645.155 573.278 639.328 588.228V588.228C626.903 620.108 689.604 672.395 778.49 704.276V704.276C820.172 719.226 862.19 727.603 895.494 727.603L1752 727.603" stroke="url(#paint70_linear_241_1037)" stroke-width="8"/>
<path opacity="0.17" d="M-24 388.603L799.847 388.603C837.046 388.603 883.977 397.96 930.534 414.658V414.658C1029.81 450.267 1099.85 508.668 1085.97 544.276V544.276C1079.46 560.975 1054.97 570.331 1017.77 570.331H700.386C667.082 570.331 645.155 578.708 639.328 593.659V593.659C626.903 625.539 689.604 677.826 778.49 709.707V709.707C820.172 724.657 862.19 733.034 895.494 733.034L1752 733.034" stroke="url(#paint71_linear_241_1037)" stroke-width="8"/>
<path opacity="0.16" d="M-24 394.034L799.847 394.034C837.046 394.034 883.977 403.391 930.534 420.089V420.089C1029.81 455.698 1099.85 514.099 1085.97 549.707V549.707C1079.46 566.406 1054.97 575.763 1017.77 575.763H700.386C667.082 575.763 645.155 584.14 639.328 599.09V599.09C626.903 630.97 689.604 683.257 778.49 715.138V715.138C820.172 730.088 862.19 738.465 895.494 738.465L1752 738.465" stroke="url(#paint72_linear_241_1037)" stroke-width="8"/>
<path opacity="0.15" d="M-24 399.465L799.847 399.465C837.046 399.465 883.977 408.822 930.534 425.52V425.52C1029.81 461.129 1099.85 519.53 1085.97 555.139V555.139C1079.46 571.837 1054.97 581.194 1017.77 581.194H700.386C667.082 581.194 645.155 589.571 639.328 604.521V604.521C626.903 636.402 689.604 688.688 778.49 720.569V720.569C820.172 735.519 862.19 743.896 895.494 743.896L1752 743.896" stroke="url(#paint73_linear_241_1037)" stroke-width="8"/>
<path opacity="0.14" d="M-24 404.896L799.847 404.896C837.046 404.896 883.977 414.253 930.534 430.951V430.951C1029.81 466.56 1099.85 524.961 1085.97 560.57V560.57C1079.46 577.268 1054.97 586.625 1017.77 586.625H700.386C667.082 586.625 645.155 595.002 639.328 609.952V609.952C626.903 641.832 689.604 694.119 778.49 726V726C820.172 740.95 862.19 749.327 895.494 749.327L1752 749.327" stroke="url(#paint74_linear_241_1037)" stroke-width="14"/>
<path opacity="0.13" d="M-24 410.327L799.847 410.327C837.046 410.327 883.977 419.684 930.534 436.382V436.382C1029.81 471.991 1099.85 530.392 1085.97 566V566C1079.46 582.699 1054.97 592.055 1017.77 592.055H700.386C667.082 592.055 645.155 600.433 639.328 615.383V615.383C626.903 647.263 689.604 699.55 778.49 731.431V731.431C820.172 746.381 862.19 754.758 895.494 754.758L1752 754.758" stroke="url(#paint75_linear_241_1037)" stroke-width="8"/>
<path opacity="0.12" d="M-24 415.758L799.847 415.758C837.046 415.758 883.977 425.115 930.534 441.813V441.813C1029.81 477.422 1099.85 535.823 1085.97 571.432V571.432C1079.46 588.13 1054.97 597.487 1017.77 597.487H700.386C667.082 597.487 645.155 605.864 639.328 620.814V620.814C626.903 652.694 689.604 704.981 778.49 736.862V736.862C820.172 751.812 862.19 760.189 895.494 760.189L1752 760.189" stroke="url(#paint76_linear_241_1037)" stroke-width="8"/>
<path opacity="0.11" d="M-24 421.189L799.847 421.189C837.046 421.189 883.977 430.546 930.534 447.244V447.244C1029.81 482.853 1099.85 541.254 1085.97 576.863V576.863C1079.46 593.561 1054.97 602.918 1017.77 602.918H700.386C667.082 602.918 645.155 611.295 639.328 626.245V626.245C626.903 658.126 689.604 710.413 778.49 742.293V742.293C820.172 757.243 862.19 765.62 895.494 765.62L1752 765.62" stroke="url(#paint77_linear_241_1037)" stroke-width="8"/>
<path opacity="0.1" d="M-24 426.62L799.847 426.62C837.046 426.62 883.977 435.977 930.534 452.675V452.675C1029.81 488.284 1099.85 546.685 1085.97 582.294V582.294C1079.46 598.992 1054.97 608.349 1017.77 608.349H700.386C667.082 608.349 645.155 616.726 639.328 631.676V631.676C626.903 663.557 689.604 715.843 778.49 747.724V747.724C820.172 762.674 862.19 771.051 895.494 771.051L1752 771.051" stroke="url(#paint78_linear_241_1037)" stroke-width="8"/>
<path opacity="0.09" d="M-24 432.051L799.847 432.051C837.046 432.051 883.977 441.408 930.534 458.106V458.106C1029.81 493.715 1099.85 552.116 1085.97 587.725V587.725C1079.46 604.423 1054.97 613.78 1017.77 613.78H700.386C667.082 613.78 645.155 622.157 639.328 637.107V637.107C626.903 668.987 689.604 721.274 778.49 753.155V753.155C820.172 768.105 862.19 776.482 895.494 776.482L1752 776.482" stroke="url(#paint79_linear_241_1037)" stroke-width="8"/>
<path opacity="0.08" d="M-24 437.482L799.847 437.482C837.046 437.482 883.977 446.839 930.534 463.537V463.537C1029.81 499.146 1099.85 557.547 1085.97 593.156V593.156C1079.46 609.854 1054.97 619.211 1017.77 619.211H700.386C667.082 619.211 645.155 627.588 639.328 642.538V642.538C626.903 674.419 689.604 726.706 778.49 758.586V758.586C820.172 773.536 862.19 781.913 895.494 781.913L1752 781.913" stroke="url(#paint80_linear_241_1037)" stroke-width="8"/>
<path opacity="0.07" d="M-24 442.914L799.847 442.914C837.046 442.914 883.977 452.27 930.534 468.969V468.969C1029.81 504.577 1099.85 562.978 1085.97 598.587V598.587C1079.46 615.285 1054.97 624.642 1017.77 624.642H700.386C667.082 624.642 645.155 633.019 639.328 647.969V647.969C626.903 679.85 689.604 732.137 778.49 764.017V764.017C820.172 778.967 862.19 787.345 895.494 787.345L1752 787.345" stroke="url(#paint81_linear_241_1037)" stroke-width="8"/>
<path opacity="0.06" d="M-24 448.344L799.847 448.344C837.046 448.344 883.977 457.701 930.534 474.4V474.4C1029.81 510.008 1099.85 568.409 1085.97 604.018V604.018C1079.46 620.716 1054.97 630.073 1017.77 630.073H700.386C667.082 630.073 645.155 638.45 639.328 653.4V653.4C626.903 685.281 689.604 737.568 778.49 769.448V769.448C820.172 784.398 862.19 792.775 895.494 792.775L1752 792.775" stroke="url(#paint82_linear_241_1037)" stroke-width="8"/>
<path opacity="0.05" d="M-24 453.775L799.847 453.775C837.046 453.775 883.977 463.132 930.534 479.83V479.83C1029.81 515.439 1099.85 573.84 1085.97 609.449V609.449C1079.46 626.147 1054.97 635.504 1017.77 635.504H700.386C667.082 635.504 645.155 643.881 639.328 658.831V658.831C626.903 690.712 689.604 742.998 778.49 774.879V774.879C820.172 789.829 862.19 798.206 895.494 798.206L1752 798.206" stroke="url(#paint83_linear_241_1037)" stroke-width="8"/>
<path opacity="0.04" d="M-24 459.207L799.847 459.207C837.046 459.207 883.977 468.563 930.534 485.262V485.262C1029.81 520.87 1099.85 579.271 1085.97 614.88V614.88C1079.46 631.578 1054.97 640.935 1017.77 640.935H700.386C667.082 640.935 645.155 649.312 639.328 664.262V664.262C626.903 696.143 689.604 748.43 778.49 780.31V780.31C820.172 795.26 862.19 803.637 895.494 803.637L1752 803.637" stroke="url(#paint84_linear_241_1037)" stroke-width="8"/>
<path opacity="0.03" d="M-24 464.638L799.847 464.638C837.046 464.638 883.977 473.994 930.534 490.693V490.693C1029.81 526.301 1099.85 584.702 1085.97 620.311V620.311C1079.46 637.009 1054.97 646.366 1017.77 646.366H700.386C667.082 646.366 645.155 654.743 639.328 669.693V669.693C626.903 701.574 689.604 753.861 778.49 785.741V785.741C820.172 800.692 862.19 809.069 895.494 809.069L1752 809.069" stroke="url(#paint85_linear_241_1037)" stroke-width="8"/>
<path opacity="0.02" d="M-24 470.069L799.847 470.069C837.046 470.069 883.977 479.425 930.534 496.124V496.124C1029.81 531.732 1099.85 590.133 1085.97 625.742V625.742C1079.46 642.44 1054.97 651.797 1017.77 651.797H700.386C667.082 651.797 645.155 660.174 639.328 675.124V675.124C626.903 707.005 689.604 759.292 778.49 791.172V791.172C820.172 806.122 862.19 814.5 895.494 814.5L1752 814.5" stroke="url(#paint86_linear_241_1037)" stroke-width="8"/>
</g>
<defs>
<linearGradient id="paint0_linear_241_1037" x1="182.516" y1="175.215" x2="741.565" y2="-495.18" gradientUnits="userSpaceOnUse">
<stop stop-color="#E14E87"/>
<stop offset="0.5" stop-color="#E8B125"/>
<stop offset="1" stop-color="#2BC9EC"/>
</linearGradient>
<linearGradient id="paint1_linear_241_1037" x1="182.516" y1="180.647" x2="741.565" y2="-489.749" gradientUnits="userSpaceOnUse">
<stop stop-color="#E14E87"/>
<stop offset="0.5" stop-color="#E8B125"/>
<stop offset="1" stop-color="#2BC9EC"/>
</linearGradient>
<linearGradient id="paint2_linear_241_1037" x1="182.516" y1="186.078" x2="741.565" y2="-484.318" gradientUnits="userSpaceOnUse">
<stop stop-color="#E14E87"/>
<stop offset="0.5" stop-color="#E8B125"/>
<stop offset="1" stop-color="#2BC9EC"/>
</linearGradient>
<linearGradient id="paint3_linear_241_1037" x1="182.516" y1="191.508" x2="741.565" y2="-478.887" gradientUnits="userSpaceOnUse">
<stop stop-color="#E14E87"/>
<stop offset="0.5" stop-color="#E8B125"/>
<stop offset="1" stop-color="#2BC9EC"/>
</linearGradient>
<linearGradient id="paint4_linear_241_1037" x1="182.516" y1="196.94" x2="741.565" y2="-473.456" gradientUnits="userSpaceOnUse">
<stop stop-color="#E14E87"/>
<stop offset="0.5" stop-color="#E8B125"/>
<stop offset="1" stop-color="#2BC9EC"/>
</linearGradient>
<linearGradient id="paint5_linear_241_1037" x1="182.516" y1="202.371" x2="741.565" y2="-468.025" gradientUnits="userSpaceOnUse">
<stop stop-color="#E14E87"/>
<stop offset="0.5" stop-color="#E8B125"/>
<stop offset="1" stop-color="#2BC9EC"/>
</linearGradient>
<linearGradient id="paint6_linear_241_1037" x1="182.516" y1="207.802" x2="741.565" y2="-462.594" gradientUnits="userSpaceOnUse">
<stop stop-color="#E14E87"/>
<stop offset="0.5" stop-color="#E8B125"/>
<stop offset="1" stop-color="#2BC9EC"/>
</linearGradient>
<linearGradient id="paint7_linear_241_1037" x1="182.516" y1="213.233" x2="741.565" y2="-457.163" gradientUnits="userSpaceOnUse">
<stop stop-color="#E14E87"/>
<stop offset="0.5" stop-color="#E8B125"/>
<stop offset="1" stop-color="#2BC9EC"/>
</linearGradient>
<linearGradient id="paint8_linear_241_1037" x1="182.516" y1="218.664" x2="741.565" y2="-451.732" gradientUnits="userSpaceOnUse">
<stop stop-color="#E14E87"/>
<stop offset="0.5" stop-color="#E8B125"/>
<stop offset="1" stop-color="#2BC9EC"/>
</linearGradient>
<linearGradient id="paint9_linear_241_1037" x1="182.516" y1="224.095" x2="741.565" y2="-446.301" gradientUnits="userSpaceOnUse">
<stop stop-color="#E14E87"/>
<stop offset="0.5" stop-color="#E8B125"/>
<stop offset="1" stop-color="#2BC9EC"/>
</linearGradient>
<linearGradient id="paint10_linear_241_1037" x1="182.516" y1="229.526" x2="741.565" y2="-440.87" gradientUnits="userSpaceOnUse">
<stop stop-color="#E14E87"/>
<stop offset="0.5" stop-color="#E8B125"/>
<stop offset="1" stop-color="#2BC9EC"/>
</linearGradient>
<linearGradient id="paint11_linear_241_1037" x1="182.516" y1="234.957" x2="741.565" y2="-435.439" gradientUnits="userSpaceOnUse">
<stop stop-color="#E14E87"/>
<stop offset="0.5" stop-color="#E8B125"/>
<stop offset="1" stop-color="#2BC9EC"/>
</linearGradient>
<linearGradient id="paint12_linear_241_1037" x1="182.516" y1="240.388" x2="741.565" y2="-430.008" gradientUnits="userSpaceOnUse">
<stop stop-color="#E14E87"/>
<stop offset="0.5" stop-color="#E8B125"/>
<stop offset="1" stop-color="#2BC9EC"/>
</linearGradient>
<linearGradient id="paint13_linear_241_1037" x1="182.516" y1="245.819" x2="741.565" y2="-424.577" gradientUnits="userSpaceOnUse">
<stop stop-color="#E14E87"/>
<stop offset="0.5" stop-color="#E8B125"/>
<stop offset="1" stop-color="#2BC9EC"/>
</linearGradient>
<linearGradient id="paint14_linear_241_1037" x1="182.516" y1="251.25" x2="741.565" y2="-419.146" gradientUnits="userSpaceOnUse">
<stop stop-color="#E14E87"/>
<stop offset="0.5" stop-color="#E8B125"/>
<stop offset="1" stop-color="#2BC9EC"/>
</linearGradient>
<linearGradient id="paint15_linear_241_1037" x1="182.516" y1="256.681" x2="741.565" y2="-413.715" gradientUnits="userSpaceOnUse">
<stop stop-color="#E14E87"/>
<stop offset="0.5" stop-color="#E8B125"/>
<stop offset="1" stop-color="#2BC9EC"/>
</linearGradient>
<linearGradient id="paint16_linear_241_1037" x1="182.516" y1="262.112" x2="741.565" y2="-408.284" gradientUnits="userSpaceOnUse">
<stop stop-color="#E14E87"/>
<stop offset="0.5" stop-color="#E8B125"/>
<stop offset="1" stop-color="#2BC9EC"/>
</linearGradient>
<linearGradient id="paint17_linear_241_1037" x1="182.516" y1="267.543" x2="741.565" y2="-402.853" gradientUnits="userSpaceOnUse">
<stop stop-color="#E14E87"/>
<stop offset="0.5" stop-color="#E8B125"/>
<stop offset="1" stop-color="#2BC9EC"/>
</linearGradient>
<linearGradient id="paint18_linear_241_1037" x1="182.516" y1="272.974" x2="741.565" y2="-397.422" gradientUnits="userSpaceOnUse">
<stop stop-color="#E14E87"/>
<stop offset="0.5" stop-color="#E8B125"/>
<stop offset="1" stop-color="#2BC9EC"/>
</linearGradient>
<linearGradient id="paint19_linear_241_1037" x1="182.516" y1="278.405" x2="741.565" y2="-391.991" gradientUnits="userSpaceOnUse">
<stop stop-color="#E14E87"/>
<stop offset="0.5" stop-color="#E8B125"/>
<stop offset="1" stop-color="#2BC9EC"/>
</linearGradient>
<linearGradient id="paint20_linear_241_1037" x1="182.516" y1="283.836" x2="741.565" y2="-386.56" gradientUnits="userSpaceOnUse">
<stop stop-color="#E14E87"/>
<stop offset="0.5" stop-color="#E8B125"/>
<stop offset="1" stop-color="#2BC9EC"/>
</linearGradient>
<linearGradient id="paint21_linear_241_1037" x1="182.516" y1="289.267" x2="741.565" y2="-381.128" gradientUnits="userSpaceOnUse">
<stop stop-color="#E14E87"/>
<stop offset="0.5" stop-color="#E8B125"/>
<stop offset="1" stop-color="#2BC9EC"/>
</linearGradient>
<linearGradient id="paint22_linear_241_1037" x1="182.516" y1="294.698" x2="741.565" y2="-375.698" gradientUnits="userSpaceOnUse">
<stop stop-color="#E14E87"/>
<stop offset="0.5" stop-color="#E8B125"/>
<stop offset="1" stop-color="#2BC9EC"/>
</linearGradient>
<linearGradient id="paint23_linear_241_1037" x1="182.516" y1="300.129" x2="741.565" y2="-370.267" gradientUnits="userSpaceOnUse">
<stop stop-color="#E14E87"/>
<stop offset="0.5" stop-color="#E8B125"/>
<stop offset="1" stop-color="#2BC9EC"/>
</linearGradient>
<linearGradient id="paint24_linear_241_1037" x1="182.516" y1="305.56" x2="741.565" y2="-364.836" gradientUnits="userSpaceOnUse">
<stop stop-color="#E14E87"/>
<stop offset="0.5" stop-color="#E8B125"/>
<stop offset="1" stop-color="#2BC9EC"/>
</linearGradient>
<linearGradient id="paint25_linear_241_1037" x1="182.516" y1="310.991" x2="741.565" y2="-359.404" gradientUnits="userSpaceOnUse">
<stop stop-color="#E14E87"/>
<stop offset="0.5" stop-color="#E8B125"/>
<stop offset="1" stop-color="#2BC9EC"/>
</linearGradient>
<linearGradient id="paint26_linear_241_1037" x1="182.516" y1="316.422" x2="741.565" y2="-353.973" gradientUnits="userSpaceOnUse">
<stop stop-color="#E14E87"/>
<stop offset="0.5" stop-color="#E8B125"/>
<stop offset="1" stop-color="#2BC9EC"/>
</linearGradient>
<linearGradient id="paint27_linear_241_1037" x1="182.516" y1="321.853" x2="741.565" y2="-348.543" gradientUnits="userSpaceOnUse">
<stop stop-color="#E14E87"/>
<stop offset="0.5" stop-color="#E8B125"/>
<stop offset="1" stop-color="#2BC9EC"/>
</linearGradient>
<linearGradient id="paint28_linear_241_1037" x1="182.516" y1="327.284" x2="741.565" y2="-343.111" gradientUnits="userSpaceOnUse">
<stop stop-color="#E14E87"/>
<stop offset="0.5" stop-color="#E8B125"/>
<stop offset="1" stop-color="#2BC9EC"/>
</linearGradient>
<linearGradient id="paint29_linear_241_1037" x1="182.516" y1="332.715" x2="741.565" y2="-337.68" gradientUnits="userSpaceOnUse">
<stop stop-color="#E14E87"/>
<stop offset="0.5" stop-color="#E8B125"/>
<stop offset="1" stop-color="#2BC9EC"/>
</linearGradient>
<linearGradient id="paint30_linear_241_1037" x1="182.516" y1="338.146" x2="741.565" y2="-332.249" gradientUnits="userSpaceOnUse">
<stop stop-color="#E14E87"/>
<stop offset="0.5" stop-color="#E8B125"/>
<stop offset="1" stop-color="#2BC9EC"/>
</linearGradient>
<linearGradient id="paint31_linear_241_1037" x1="182.516" y1="343.577" x2="741.565" y2="-326.818" gradientUnits="userSpaceOnUse">
<stop stop-color="#E14E87"/>
<stop offset="0.5" stop-color="#E8B125"/>
<stop offset="1" stop-color="#2BC9EC"/>
</linearGradient>
<linearGradient id="paint32_linear_241_1037" x1="182.516" y1="349.008" x2="741.565" y2="-321.387" gradientUnits="userSpaceOnUse">
<stop stop-color="#E14E87"/>
<stop offset="0.5" stop-color="#E8B125"/>
<stop offset="1" stop-color="#2BC9EC"/>
</linearGradient>
<linearGradient id="paint33_linear_241_1037" x1="182.516" y1="354.44" x2="741.565" y2="-315.956" gradientUnits="userSpaceOnUse">
<stop stop-color="#E14E87"/>
<stop offset="0.5" stop-color="#E8B125"/>
<stop offset="1" stop-color="#2BC9EC"/>
</linearGradient>
<linearGradient id="paint34_linear_241_1037" x1="182.516" y1="359.871" x2="741.565" y2="-310.525" gradientUnits="userSpaceOnUse">
<stop stop-color="#E14E87"/>
<stop offset="0.5" stop-color="#E8B125"/>
<stop offset="1" stop-color="#2BC9EC"/>
</linearGradient>
<linearGradient id="paint35_linear_241_1037" x1="182.516" y1="365.301" x2="741.565" y2="-305.094" gradientUnits="userSpaceOnUse">
<stop stop-color="#E14E87"/>
<stop offset="0.5" stop-color="#E8B125"/>
<stop offset="1" stop-color="#2BC9EC"/>
</linearGradient>
<linearGradient id="paint36_linear_241_1037" x1="182.516" y1="370.733" x2="741.565" y2="-299.663" gradientUnits="userSpaceOnUse">
<stop stop-color="#E14E87"/>
<stop offset="0.5" stop-color="#E8B125"/>
<stop offset="1" stop-color="#2BC9EC"/>
</linearGradient>
<linearGradient id="paint37_linear_241_1037" x1="182.516" y1="376.164" x2="741.565" y2="-294.232" gradientUnits="userSpaceOnUse">
<stop stop-color="#E14E87"/>
<stop offset="0.5" stop-color="#E8B125"/>
<stop offset="1" stop-color="#2BC9EC"/>
</linearGradient>
<linearGradient id="paint38_linear_241_1037" x1="182.516" y1="381.595" x2="741.565" y2="-288.801" gradientUnits="userSpaceOnUse">
<stop stop-color="#E14E87"/>
<stop offset="0.5" stop-color="#E8B125"/>
<stop offset="1" stop-color="#2BC9EC"/>
</linearGradient>
<linearGradient id="paint39_linear_241_1037" x1="182.516" y1="387.026" x2="741.565" y2="-283.37" gradientUnits="userSpaceOnUse">
<stop stop-color="#E14E87"/>
<stop offset="0.5" stop-color="#E8B125"/>
<stop offset="1" stop-color="#2BC9EC"/>
</linearGradient>
<linearGradient id="paint40_linear_241_1037" x1="182.516" y1="392.457" x2="741.565" y2="-277.939" gradientUnits="userSpaceOnUse">
<stop stop-color="#E14E87"/>
<stop offset="0.5" stop-color="#E8B125"/>
<stop offset="1" stop-color="#2BC9EC"/>
</linearGradient>
<linearGradient id="paint41_linear_241_1037" x1="182.516" y1="397.888" x2="741.565" y2="-272.508" gradientUnits="userSpaceOnUse">
<stop stop-color="#E14E87"/>
<stop offset="0.5" stop-color="#E8B125"/>
<stop offset="1" stop-color="#2BC9EC"/>
</linearGradient>
<linearGradient id="paint42_linear_241_1037" x1="182.516" y1="403.319" x2="741.565" y2="-267.077" gradientUnits="userSpaceOnUse">
<stop stop-color="#E14E87"/>
<stop offset="0.5" stop-color="#E8B125"/>
<stop offset="1" stop-color="#2BC9EC"/>
</linearGradient>
<linearGradient id="paint43_linear_241_1037" x1="182.516" y1="408.75" x2="741.565" y2="-261.646" gradientUnits="userSpaceOnUse">
<stop stop-color="#E14E87"/>
<stop offset="0.5" stop-color="#E8B125"/>
<stop offset="1" stop-color="#2BC9EC"/>
</linearGradient>
<linearGradient id="paint44_linear_241_1037" x1="182.516" y1="414.181" x2="741.565" y2="-256.215" gradientUnits="userSpaceOnUse">
<stop stop-color="#E14E87"/>
<stop offset="0.5" stop-color="#E8B125"/>
<stop offset="1" stop-color="#2BC9EC"/>
</linearGradient>
<linearGradient id="paint45_linear_241_1037" x1="182.516" y1="419.612" x2="741.565" y2="-250.784" gradientUnits="userSpaceOnUse">
<stop stop-color="#E14E87"/>
<stop offset="0.5" stop-color="#E8B125"/>
<stop offset="1" stop-color="#2BC9EC"/>
</linearGradient>
<linearGradient id="paint46_linear_241_1037" x1="182.516" y1="425.043" x2="741.565" y2="-245.353" gradientUnits="userSpaceOnUse">
<stop stop-color="#E14E87"/>
<stop offset="0.5" stop-color="#E8B125"/>
<stop offset="1" stop-color="#2BC9EC"/>
</linearGradient>
<linearGradient id="paint47_linear_241_1037" x1="182.516" y1="430.474" x2="741.565" y2="-239.922" gradientUnits="userSpaceOnUse">
<stop stop-color="#E14E87"/>
<stop offset="0.5" stop-color="#E8B125"/>
<stop offset="1" stop-color="#2BC9EC"/>
</linearGradient>
<linearGradient id="paint48_linear_241_1037" x1="182.516" y1="435.905" x2="741.565" y2="-234.491" gradientUnits="userSpaceOnUse">
<stop stop-color="#E14E87"/>
<stop offset="0.5" stop-color="#E8B125"/>
<stop offset="1" stop-color="#2BC9EC"/>
</linearGradient>
<linearGradient id="paint49_linear_241_1037" x1="182.516" y1="441.336" x2="741.565" y2="-229.06" gradientUnits="userSpaceOnUse">
<stop stop-color="#E14E87"/>
<stop offset="0.5" stop-color="#E8B125"/>
<stop offset="1" stop-color="#2BC9EC"/>
</linearGradient>
<linearGradient id="paint50_linear_241_1037" x1="182.516" y1="446.767" x2="741.565" y2="-223.629" gradientUnits="userSpaceOnUse">
<stop stop-color="#E14E87"/>
<stop offset="0.5" stop-color="#E8B125"/>
<stop offset="1" stop-color="#2BC9EC"/>
</linearGradient>
<linearGradient id="paint51_linear_241_1037" x1="182.516" y1="452.198" x2="741.565" y2="-218.198" gradientUnits="userSpaceOnUse">
<stop stop-color="#E14E87"/>
<stop offset="0.5" stop-color="#E8B125"/>
<stop offset="1" stop-color="#2BC9EC"/>
</linearGradient>
<linearGradient id="paint52_linear_241_1037" x1="182.516" y1="457.629" x2="741.565" y2="-212.767" gradientUnits="userSpaceOnUse">
<stop stop-color="#E14E87"/>
<stop offset="0.5" stop-color="#E8B125"/>
<stop offset="1" stop-color="#2BC9EC"/>
</linearGradient>
<linearGradient id="paint53_linear_241_1037" x1="182.516" y1="463.06" x2="741.565" y2="-207.336" gradientUnits="userSpaceOnUse">
<stop stop-color="#E14E87"/>
<stop offset="0.5" stop-color="#E8B125"/>
<stop offset="1" stop-color="#2BC9EC"/>
</linearGradient>
<linearGradient id="paint54_linear_241_1037" x1="182.516" y1="468.491" x2="741.565" y2="-201.905" gradientUnits="userSpaceOnUse">
<stop stop-color="#E14E87"/>
<stop offset="0.5" stop-color="#E8B125"/>
<stop offset="1" stop-color="#2BC9EC"/>
</linearGradient>
<linearGradient id="paint55_linear_241_1037" x1="182.516" y1="473.922" x2="741.565" y2="-196.474" gradientUnits="userSpaceOnUse">
<stop stop-color="#E14E87"/>
<stop offset="0.5" stop-color="#E8B125"/>
<stop offset="1" stop-color="#2BC9EC"/>
</linearGradient>
<linearGradient id="paint56_linear_241_1037" x1="182.516" y1="479.353" x2="741.565" y2="-191.043" gradientUnits="userSpaceOnUse">
<stop stop-color="#E14E87"/>
<stop offset="0.5" stop-color="#E8B125"/>
<stop offset="1" stop-color="#2BC9EC"/>
</linearGradient>
<linearGradient id="paint57_linear_241_1037" x1="182.516" y1="484.784" x2="741.565" y2="-185.611" gradientUnits="userSpaceOnUse">
<stop stop-color="#E14E87"/>
<stop offset="0.5" stop-color="#E8B125"/>
<stop offset="1" stop-color="#2BC9EC"/>
</linearGradient>
<linearGradient id="paint58_linear_241_1037" x1="182.516" y1="490.215" x2="741.565" y2="-180.18" gradientUnits="userSpaceOnUse">
<stop stop-color="#E14E87"/>
<stop offset="0.5" stop-color="#E8B125"/>
<stop offset="1" stop-color="#2BC9EC"/>
</linearGradient>
<linearGradient id="paint59_linear_241_1037" x1="182.516" y1="495.646" x2="741.565" y2="-174.75" gradientUnits="userSpaceOnUse">
<stop stop-color="#E14E87"/>
<stop offset="0.5" stop-color="#E8B125"/>
<stop offset="1" stop-color="#2BC9EC"/>
</linearGradient>
<linearGradient id="paint60_linear_241_1037" x1="182.516" y1="501.077" x2="741.565" y2="-169.318" gradientUnits="userSpaceOnUse">
<stop stop-color="#E14E87"/>
<stop offset="0.5" stop-color="#E8B125"/>
<stop offset="1" stop-color="#2BC9EC"/>
</linearGradient>
<linearGradient id="paint61_linear_241_1037" x1="182.516" y1="506.508" x2="741.565" y2="-163.887" gradientUnits="userSpaceOnUse">
<stop stop-color="#E14E87"/>
<stop offset="0.5" stop-color="#E8B125"/>
<stop offset="1" stop-color="#2BC9EC"/>
</linearGradient>
<linearGradient id="paint62_linear_241_1037" x1="182.516" y1="511.939" x2="741.565" y2="-158.456" gradientUnits="userSpaceOnUse">
<stop stop-color="#E14E87"/>
<stop offset="0.5" stop-color="#E8B125"/>
<stop offset="1" stop-color="#2BC9EC"/>
</linearGradient>
<linearGradient id="paint63_linear_241_1037" x1="182.516" y1="517.37" x2="741.565" y2="-153.025" gradientUnits="userSpaceOnUse">
<stop stop-color="#E14E87"/>
<stop offset="0.5" stop-color="#E8B125"/>
<stop offset="1" stop-color="#2BC9EC"/>
</linearGradient>
<linearGradient id="paint64_linear_241_1037" x1="182.516" y1="522.801" x2="741.565" y2="-147.594" gradientUnits="userSpaceOnUse">
<stop stop-color="#E14E87"/>
<stop offset="0.5" stop-color="#E8B125"/>
<stop offset="1" stop-color="#2BC9EC"/>
</linearGradient>
<linearGradient id="paint65_linear_241_1037" x1="182.516" y1="528.233" x2="741.565" y2="-142.163" gradientUnits="userSpaceOnUse">
<stop stop-color="#E14E87"/>
<stop offset="0.5" stop-color="#E8B125"/>
<stop offset="1" stop-color="#2BC9EC"/>
</linearGradient>
<linearGradient id="paint66_linear_241_1037" x1="182.516" y1="533.663" x2="741.565" y2="-136.732" gradientUnits="userSpaceOnUse">
<stop stop-color="#E14E87"/>
<stop offset="0.5" stop-color="#E8B125"/>
<stop offset="1" stop-color="#2BC9EC"/>
</linearGradient>
<linearGradient id="paint67_linear_241_1037" x1="182.516" y1="539.094" x2="741.565" y2="-131.301" gradientUnits="userSpaceOnUse">
<stop stop-color="#E14E87"/>
<stop offset="0.5" stop-color="#E8B125"/>
<stop offset="1" stop-color="#2BC9EC"/>
</linearGradient>
<linearGradient id="paint68_linear_241_1037" x1="182.516" y1="544.526" x2="741.565" y2="-125.87" gradientUnits="userSpaceOnUse">
<stop stop-color="#E14E87"/>
<stop offset="0.5" stop-color="#E8B125"/>
<stop offset="1" stop-color="#2BC9EC"/>
</linearGradient>
<linearGradient id="paint69_linear_241_1037" x1="182.516" y1="549.957" x2="741.565" y2="-120.439" gradientUnits="userSpaceOnUse">
<stop stop-color="#E14E87"/>
<stop offset="0.5" stop-color="#E8B125"/>
<stop offset="1" stop-color="#2BC9EC"/>
</linearGradient>
<linearGradient id="paint70_linear_241_1037" x1="182.516" y1="555.388" x2="741.565" y2="-115.008" gradientUnits="userSpaceOnUse">
<stop stop-color="#E14E87"/>
<stop offset="0.5" stop-color="#E8B125"/>
<stop offset="1" stop-color="#2BC9EC"/>
</linearGradient>
<linearGradient id="paint71_linear_241_1037" x1="182.516" y1="560.819" x2="741.565" y2="-109.577" gradientUnits="userSpaceOnUse">
<stop stop-color="#E14E87"/>
<stop offset="0.5" stop-color="#E8B125"/>
<stop offset="1" stop-color="#2BC9EC"/>
</linearGradient>
<linearGradient id="paint72_linear_241_1037" x1="182.516" y1="566.25" x2="741.565" y2="-104.146" gradientUnits="userSpaceOnUse">
<stop stop-color="#E14E87"/>
<stop offset="0.5" stop-color="#E8B125"/>
<stop offset="1" stop-color="#2BC9EC"/>
</linearGradient>
<linearGradient id="paint73_linear_241_1037" x1="182.516" y1="571.681" x2="741.565" y2="-98.7149" gradientUnits="userSpaceOnUse">
<stop stop-color="#E14E87"/>
<stop offset="0.5" stop-color="#E8B125"/>
<stop offset="1" stop-color="#2BC9EC"/>
</linearGradient>
<linearGradient id="paint74_linear_241_1037" x1="182.516" y1="577.112" x2="741.565" y2="-93.284" gradientUnits="userSpaceOnUse">
<stop stop-color="#E14E87"/>
<stop offset="0.5" stop-color="#E8B125"/>
<stop offset="1" stop-color="#2BC9EC"/>
</linearGradient>
<linearGradient id="paint75_linear_241_1037" x1="182.516" y1="582.543" x2="741.565" y2="-87.8531" gradientUnits="userSpaceOnUse">
<stop stop-color="#E14E87"/>
<stop offset="0.5" stop-color="#E8B125"/>
<stop offset="1" stop-color="#2BC9EC"/>
</linearGradient>
<linearGradient id="paint76_linear_241_1037" x1="182.516" y1="587.974" x2="741.565" y2="-82.4219" gradientUnits="userSpaceOnUse">
<stop stop-color="#E14E87"/>
<stop offset="0.5" stop-color="#E8B125"/>
<stop offset="1" stop-color="#2BC9EC"/>
</linearGradient>
<linearGradient id="paint77_linear_241_1037" x1="182.516" y1="593.405" x2="741.565" y2="-76.9908" gradientUnits="userSpaceOnUse">
<stop stop-color="#E14E87"/>
<stop offset="0.5" stop-color="#E8B125"/>
<stop offset="1" stop-color="#2BC9EC"/>
</linearGradient>
<linearGradient id="paint78_linear_241_1037" x1="182.516" y1="598.836" x2="741.565" y2="-71.5599" gradientUnits="userSpaceOnUse">
<stop stop-color="#E14E87"/>
<stop offset="0.5" stop-color="#E8B125"/>
<stop offset="1" stop-color="#2BC9EC"/>
</linearGradient>
<linearGradient id="paint79_linear_241_1037" x1="182.516" y1="604.267" x2="741.565" y2="-66.129" gradientUnits="userSpaceOnUse">
<stop stop-color="#E14E87"/>
<stop offset="0.5" stop-color="#E8B125"/>
<stop offset="1" stop-color="#2BC9EC"/>
</linearGradient>
<linearGradient id="paint80_linear_241_1037" x1="182.516" y1="609.698" x2="741.565" y2="-60.6978" gradientUnits="userSpaceOnUse">
<stop stop-color="#E14E87"/>
<stop offset="0.5" stop-color="#E8B125"/>
<stop offset="1" stop-color="#2BC9EC"/>
</linearGradient>
<linearGradient id="paint81_linear_241_1037" x1="182.516" y1="615.129" x2="741.565" y2="-55.2667" gradientUnits="userSpaceOnUse">
<stop stop-color="#E14E87"/>
<stop offset="0.5" stop-color="#E8B125"/>
<stop offset="1" stop-color="#2BC9EC"/>
</linearGradient>
<linearGradient id="paint82_linear_241_1037" x1="182.516" y1="620.56" x2="741.565" y2="-49.8358" gradientUnits="userSpaceOnUse">
<stop stop-color="#E14E87"/>
<stop offset="0.5" stop-color="#E8B125"/>
<stop offset="1" stop-color="#2BC9EC"/>
</linearGradient>
<linearGradient id="paint83_linear_241_1037" x1="182.516" y1="625.991" x2="741.565" y2="-44.4048" gradientUnits="userSpaceOnUse">
<stop stop-color="#E14E87"/>
<stop offset="0.5" stop-color="#E8B125"/>
<stop offset="1" stop-color="#2BC9EC"/>
</linearGradient>
<linearGradient id="paint84_linear_241_1037" x1="182.516" y1="631.422" x2="741.565" y2="-38.9737" gradientUnits="userSpaceOnUse">
<stop stop-color="#E14E87"/>
<stop offset="0.5" stop-color="#E8B125"/>
<stop offset="1" stop-color="#2BC9EC"/>
</linearGradient>
<linearGradient id="paint85_linear_241_1037" x1="182.516" y1="636.853" x2="741.565" y2="-33.5425" gradientUnits="userSpaceOnUse">
<stop stop-color="#E14E87"/>
<stop offset="0.5" stop-color="#E8B125"/>
<stop offset="1" stop-color="#2BC9EC"/>
</linearGradient>
<linearGradient id="paint86_linear_241_1037" x1="182.516" y1="642.284" x2="741.565" y2="-28.1116" gradientUnits="userSpaceOnUse">
<stop stop-color="#E14E87"/>
<stop offset="0.5" stop-color="#E8B125"/>
<stop offset="1" stop-color="#2BC9EC"/>
</linearGradient>
</defs>
</svg>
