<svg width="16" height="16" viewBox="0 0 16 16" fill="none" xmlns="http://www.w3.org/2000/svg">
    <path
        d="M2.0625 7.3365C2.0625 6.57139 2.41286 5.8484 3.01339 5.3743L6.45089 2.66048C7.35916 1.94343 8.64084 1.94342 9.54911 2.66048L12.9866 5.3743C13.5871 5.8484 13.9375 6.57139 13.9375 7.3365V11.4375C13.9375 12.8182 12.8182 13.9375 11.4375 13.9375H10.5C10.1548 13.9375 9.875 13.6577 9.875 13.3125V11.4375C9.875 10.7471 9.31536 10.1875 8.625 10.1875H7.375C6.68464 10.1875 6.125 10.7471 6.125 11.4375V13.3125C6.125 13.6577 5.84518 13.9375 5.5 13.9375H4.5625C3.18179 13.9375 2.0625 12.8182 2.0625 11.4375L2.0625 7.3365Z"
        stroke="white" stroke-width="0.9375" />
</svg>