<svg width="16" height="16" viewBox="0 0 16 16" fill="none" xmlns="http://www.w3.org/2000/svg">
    <path
        d="M1.75001 5.76807C1.75001 5.07771 2.30965 4.51807 3.00001 4.51807H13C13.6904 4.51807 14.25 5.07771 14.25 5.76807V6.80229C14.25 7.3543 13.8879 7.84096 13.3592 7.99958L8.71837 9.39181C8.24978 9.53239 7.75024 9.53239 7.28164 9.39181L2.64082 7.99958C2.11209 7.84096 1.75001 7.3543 1.75001 6.80229V5.76807Z"
        stroke="white" stroke-width="0.9375" />
    <path d="M8.00001 7.73231L8.00001 6.66089" stroke="white" stroke-width="0.9375"
        stroke-linecap="round" stroke-linejoin="round" />
    <path
        d="M2.27087 7.73193L2.27087 11.1248C2.27087 12.5055 3.39015 13.6248 4.77086 13.6248H11.2292C12.6099 13.6248 13.7292 12.5055 13.7292 11.1248V7.73193"
        stroke="white" stroke-width="0.9375" />
    <path
        d="M10.0833 4.51784V3.625C10.0833 2.93464 9.52369 2.375 8.83333 2.375H7.16667C6.47631 2.375 5.91667 2.93464 5.91667 3.625L5.91667 4.51784"
        stroke="white" stroke-width="0.9375" />
</svg>