<svg width="140" height="36" viewBox="0 0 140 36" fill="none" xmlns="http://www.w3.org/2000/svg">
<g clip-path="url(#clip0_377_2270)">
<path d="M17.73 31.7299H4.68258L18.7688 13.6627C18.7688 13.6627 18.7801 13.6469 18.7869 13.6401L18.8096 13.6107C18.9838 13.364 19.0698 13.0335 19.0698 12.6171C19.0698 11.6077 18.5651 11.103 17.5557 11.103H1.51409C0.504696 11.103 0 11.6077 0 12.6171C0 13.6265 0.504696 14.1312 1.51409 14.1312H14.6588L0.475274 32.1622L0.49338 32.1713C0.280638 32.4225 0.172004 32.7778 0.172004 33.2418C0.172004 34.2511 0.6767 34.7558 1.68609 34.7558H17.7277C18.7371 34.7558 19.2418 34.2511 19.2418 33.2418C19.2418 32.2324 18.7371 31.7277 17.7277 31.7277L17.73 31.7299Z" fill="white"/>
<path d="M37.8862 31.4266H36.7184C35.3627 31.4266 34.2537 30.9581 33.3892 30.0212C32.5246 29.0842 32.0924 27.8802 32.0924 26.4113V14.8667H36.9786C37.4109 14.8667 37.7707 14.7309 38.0604 14.4548C38.3479 14.181 38.4927 13.8437 38.4927 13.4386C38.4927 13.0063 38.3479 12.6533 38.0604 12.3794C37.7707 12.1056 37.4109 11.9675 36.9786 11.9675H32.0924V5.26617C32.0924 4.77732 31.9339 4.3722 31.6171 4.05535C31.3002 3.7385 30.8951 3.58008 30.4063 3.58008C29.9174 3.58008 29.5191 3.7385 29.2181 4.05535C28.9148 4.3722 28.7632 4.77732 28.7632 5.26617V11.9675H25.9523C25.52 11.9675 25.1601 12.1056 24.8704 12.3794C24.583 12.6533 24.4382 13.0063 24.4382 13.4386C24.4382 13.8437 24.583 14.181 24.8704 14.4548C25.1579 14.7287 25.52 14.8667 25.9523 14.8667H28.7632V26.4113C28.7632 28.025 29.1094 29.4599 29.802 30.7137C30.4945 31.9675 31.4383 32.9565 32.6333 33.6762C33.8282 34.3982 35.1907 34.7581 36.7206 34.7581H37.6282C38.1464 34.7581 38.5787 34.6064 38.925 34.3032C39.2713 33.9999 39.4433 33.6038 39.4433 33.115C39.4433 32.6261 39.2984 32.221 39.011 31.9042C38.7236 31.5873 38.3479 31.4289 37.8862 31.4289V31.4266Z" fill="white"/>
<path d="M64.6509 11.103C64.1598 11.103 63.7637 11.2547 63.4627 11.5579C63.1594 11.8612 63.0078 12.2573 63.0078 12.7461V25.5446C63.0078 26.7554 62.6751 27.8372 62.0143 28.7878C61.3511 29.7383 60.4504 30.4897 59.312 31.0374C58.1736 31.5851 56.8971 31.8589 55.4849 31.8589C54.0726 31.8589 52.6966 31.5715 51.5288 30.9944C50.361 30.4173 49.4376 29.5527 48.7609 28.4007C48.0842 27.2488 47.7447 25.7777 47.7447 23.9897V12.7461C47.7447 12.2844 47.5863 11.8952 47.2694 11.5783C46.9526 11.2615 46.5475 11.103 46.0586 11.103C45.5969 11.103 45.2077 11.2615 44.8908 11.5783C44.574 11.8952 44.4155 12.2844 44.4155 12.7461V23.9897C44.4155 26.3548 44.884 28.3577 45.821 30.0008C46.758 31.6439 48.0321 32.891 49.6481 33.7419C51.2617 34.5929 53.0927 35.0184 55.1386 35.0184C57.0126 35.0184 58.7122 34.6065 60.2422 33.7849C61.3195 33.2055 62.2406 32.4768 63.0101 31.5964V33.072C63.0101 33.5903 63.1617 34.0022 63.465 34.3055C63.7682 34.6087 64.1643 34.7604 64.6532 34.7604C65.142 34.7604 65.5471 34.6087 65.864 34.3055C66.1808 34.0022 66.3393 33.5926 66.3393 33.072V12.7461C66.3393 12.2573 66.1808 11.8589 65.864 11.5579C65.5471 11.2547 65.142 11.103 64.6532 11.103H64.6509Z" fill="white"/>
<path d="M95.2223 0.984197C94.7312 0.984197 94.3284 1.13583 94.0115 1.4391C93.6947 1.74237 93.5362 2.15201 93.5362 2.67255V15.385C92.5857 14.0293 91.3319 12.943 89.7748 12.1192C88.2177 11.2976 86.4728 10.8857 84.5422 10.8857C82.322 10.8857 80.3327 11.4131 78.5742 12.4632C76.8156 13.5156 75.4238 14.9505 74.4008 16.7656C73.3778 18.5807 72.8663 20.6289 72.8663 22.9057C72.8663 25.1824 73.3914 27.2736 74.4438 29.0887C75.4962 30.9038 76.9311 32.3387 78.7462 33.3911C80.5613 34.4435 82.6095 34.9686 84.8862 34.9686C87.163 34.9686 89.1592 34.4503 90.9607 33.4115C92.7622 32.3727 94.188 30.9536 95.2427 29.1521C96.2951 27.3506 96.8496 25.325 96.9084 23.0777V2.67029C96.9084 2.15201 96.75 1.74011 96.4331 1.43684C96.1163 1.13357 95.7112 0.981934 95.2223 0.981934V0.984197ZM92.4771 27.5339C91.7121 28.8896 90.6755 29.9623 89.3629 30.7545C88.0502 31.5466 86.5588 31.9426 84.8862 31.9426C83.2137 31.9426 81.7585 31.5466 80.4323 30.7545C79.106 29.9623 78.0536 28.8873 77.2751 27.5339C76.4965 26.1783 76.1073 24.637 76.1073 22.9079C76.1073 21.1788 76.4965 19.6715 77.2751 18.3023C78.0536 16.933 79.106 15.858 80.4323 15.0817C81.7585 14.3032 83.2432 13.9139 84.8862 13.9139C86.5293 13.9139 88.0502 14.3032 89.3629 15.0817C90.6733 15.8603 91.7121 16.9353 92.4771 18.3023C93.2398 19.6715 93.6222 21.206 93.6222 22.9079C93.6222 24.6099 93.2398 26.1805 92.4771 27.5339Z" fill="white"/>
<path d="M107.07 11.1031C106.552 11.1031 106.14 11.2547 105.837 11.558C105.534 11.8613 105.382 12.2709 105.382 12.7914V33.0721C105.382 33.5904 105.534 34.0023 105.837 34.3055C106.14 34.6088 106.55 34.7604 107.07 34.7604C107.559 34.7604 107.957 34.6088 108.258 34.3055C108.562 34.0023 108.713 33.5926 108.713 33.0721V12.7892C108.713 12.2709 108.562 11.859 108.258 11.5557C107.955 11.2525 107.559 11.1008 107.07 11.1008V11.1031Z" fill="white"/>
<path d="M108.693 2.51875C108.218 2.10232 107.677 1.89185 107.073 1.89185C106.468 1.89185 105.884 2.10232 105.407 2.51875C104.932 2.93745 104.694 3.50551 104.694 4.22748C104.694 4.8906 104.925 5.45414 105.386 5.91357C105.848 6.37527 106.396 6.60611 107.03 6.60611C107.663 6.60611 108.254 6.37527 108.716 5.91357C109.177 5.45188 109.408 4.8906 109.408 4.22748C109.408 3.50778 109.171 2.93745 108.695 2.51875H108.693Z" fill="white"/>
<path d="M127.957 34.0181C134.082 34.0181 139.047 29.053 139.047 22.9284C139.047 16.8037 134.082 11.8386 127.957 11.8386C121.833 11.8386 116.868 16.8037 116.868 22.9284C116.868 29.053 121.833 34.0181 127.957 34.0181Z" fill="white"/>
<path d="M127.978 34.9731C125.672 34.9731 123.61 34.4548 121.795 33.416C119.98 32.3772 118.552 30.9514 117.513 29.134C116.474 27.3189 115.956 25.2571 115.956 22.9509C115.956 20.6447 116.474 18.5399 117.513 16.7248C118.552 14.9097 119.977 13.4816 121.795 12.4428C123.61 11.404 125.672 10.8857 127.978 10.8857C130.284 10.8857 132.337 11.404 134.141 12.4428C135.942 13.4816 137.361 14.9075 138.4 16.7248C139.439 18.5399 139.971 20.6175 140 22.9509C140 25.2571 139.473 27.3189 138.423 29.134C137.37 30.9491 135.942 32.3772 134.141 33.416C132.339 34.4548 130.284 34.9731 127.978 34.9731ZM127.978 31.9472C129.65 31.9472 131.149 31.5579 132.475 30.7794C133.801 30.0008 134.838 28.9348 135.589 27.5792C136.338 26.2235 136.714 24.6823 136.714 22.9532C136.714 21.2241 136.338 19.6738 135.589 18.3045C134.84 16.9353 133.801 15.8603 132.475 15.084C131.149 14.3055 129.65 13.9162 127.978 13.9162C126.305 13.9162 124.807 14.3055 123.481 15.084C122.155 15.8625 121.109 16.9376 120.346 18.3045C119.581 19.6738 119.201 21.2241 119.201 22.9532C119.201 24.6823 119.584 26.2258 120.346 27.5792C121.109 28.9348 122.155 30.0008 123.481 30.7794C124.807 31.5579 126.305 31.9472 127.978 31.9472Z" fill="url(#paint0_linear_377_2270)"/>
</g>
<defs>
<linearGradient id="paint0_linear_377_2270" x1="115.958" y1="22.9283" x2="140" y2="22.9283" gradientUnits="userSpaceOnUse">
<stop stop-color="#E14492"/>
<stop offset="0.5" stop-color="#E8B125"/>
<stop offset="1" stop-color="#2BC9EC"/>
</linearGradient>
<clipPath id="clip0_377_2270">
<rect width="140" height="34.0319" fill="white" transform="translate(0 0.984131)"/>
</clipPath>
</defs>
</svg>
