<svg width="93" height="74" viewBox="0 0 93 74" fill="none" xmlns="http://www.w3.org/2000/svg">
<path d="M83.117 73.5246H72.8048C70.2133 73.5246 67.7271 72.4958 65.8924 70.6612C64.0602 68.829 63.029 66.3428 63.029 63.7488C63.029 61.1548 64.0578 58.6711 65.8924 56.8364C67.7246 55.0042 70.2108 53.973 72.8048 53.973H83.117C85.7085 53.973 88.1947 55.0018 90.0294 56.8364C91.8616 58.6686 92.8928 61.1548 92.8928 63.7488C92.8928 66.3428 91.864 68.8265 90.0294 70.6612C88.1972 72.4934 85.711 73.5246 83.117 73.5246Z" fill="#A9AAA9"/>
<path d="M72.6579 73.5246H53.8411C51.2496 73.5246 48.7634 72.4958 46.9288 70.6612C45.0966 68.829 44.0653 66.3428 44.0653 63.7488C44.0653 61.1548 45.0941 58.6711 46.9288 56.8364C48.7609 55.0042 51.2471 53.973 53.8411 53.973H72.6579C75.2494 53.973 77.7356 55.0018 79.5702 56.8364C81.4024 58.6686 82.4337 61.1548 82.4337 63.7488C82.4337 66.3428 81.4049 68.8265 79.5702 70.6612C77.738 72.4934 75.2518 73.5246 72.6579 73.5246Z" fill="#CCCCCC"/>
<path d="M62.8822 73.5246H48.3177C45.7262 73.5246 43.24 72.4958 41.4053 70.6612C39.5731 68.829 38.5419 66.3428 38.5419 63.7488C38.5419 61.1548 39.5707 58.6711 41.4053 56.8364C43.2375 55.0042 45.7237 53.973 48.3177 53.973H62.8822C65.4737 53.973 67.9599 55.0018 69.7945 56.8364C71.6267 58.6686 72.658 61.1548 72.658 63.7488C72.658 66.3428 71.6292 68.8265 69.7945 70.6612C67.9624 72.4934 65.4762 73.5246 62.8822 73.5246Z" fill="white"/>
<path d="M27.3993 73.5246C32.7984 73.5246 37.1751 69.1478 37.1751 63.7488C37.1751 58.3498 32.7984 53.973 27.3993 53.973C22.0003 53.973 17.6236 58.3498 17.6236 63.7488C17.6236 69.1478 22.0003 73.5246 27.3993 73.5246Z" fill="white"/>
<path d="M39.5217 52.6527C37.7826 52.6527 36.0606 52.1898 34.5395 51.2884C32.308 49.9681 30.6938 47.8126 30.0521 45.3019C29.4103 42.7912 29.79 40.1262 31.1127 37.8948L41.6821 20.0529H9.80487C7.21334 20.0529 4.72714 19.0241 2.8925 17.1895C1.05786 15.3573 0.0290833 12.8711 0.0290833 10.2796C0.0290833 7.68804 1.05786 5.1994 2.8925 3.3672C4.72469 1.53256 7.21089 0.503784 9.80487 0.503784H58.6005C60.3837 0.503784 62.1375 0.986327 63.6709 1.89753C65.1014 2.74994 66.3041 3.95997 67.1467 5.39535C67.9893 6.83073 68.4596 8.47187 68.5061 10.1351C68.5551 11.9183 68.1216 13.6843 67.252 15.2422L67.1908 15.3499L67.1271 15.4577L47.9307 47.8592C46.6104 50.0906 44.4549 51.7048 41.9442 52.3466C41.1457 52.5499 40.3325 52.6527 39.5217 52.6527Z" fill="#A9AAA9"/>
<path d="M44.5063 44.2462C42.7672 44.2462 41.0453 43.7833 39.5241 42.8819C37.2927 41.5616 35.6785 39.4085 35.0367 36.8954C34.3925 34.3847 34.7746 31.7197 36.0949 29.4882L41.6846 20.0505H9.80487C7.21334 20.0505 4.72714 19.0217 2.8925 17.187C1.05786 15.3573 0.0290833 12.8711 0.0290833 10.2796C0.0290833 7.68804 1.05786 5.1994 2.8925 3.3672C4.72469 1.53256 7.21089 0.503784 9.80487 0.503784H58.6005C60.3837 0.503784 62.1375 0.986327 63.6709 1.89753C65.1014 2.74994 66.3041 3.95997 67.1467 5.39535C67.9893 6.83073 68.4596 8.47187 68.5061 10.1351C68.5551 11.9183 68.1216 13.6843 67.252 15.2422L67.1908 15.3499L67.1271 15.4553L52.9178 39.4502C51.5975 41.6816 49.4445 43.2958 46.9313 43.9376C46.1328 44.1433 45.3171 44.2438 44.5063 44.2438V44.2462Z" fill="#CCCCCC"/>
<path d="M49.442 35.9376C47.7053 35.9376 45.9858 35.4747 44.4672 34.5782C42.2357 33.2579 40.6191 31.1073 39.9748 28.5966C39.3306 26.0859 39.7079 23.4209 41.0281 21.1895L41.6993 20.0554H9.80487C7.21334 20.0554 4.72714 19.0266 2.8925 17.1919C1.05786 15.3573 0.0290833 12.8711 0.0290833 10.2796C0.0290833 7.68804 1.05786 5.1994 2.8925 3.3672C4.72469 1.53256 7.21089 0.503784 9.80487 0.503784H58.6005C60.3837 0.503784 62.1375 0.986327 63.6709 1.89753C65.1014 2.74994 66.3041 3.95997 67.1467 5.39535C67.9893 6.83073 68.4596 8.47187 68.5061 10.1351C68.5551 11.9183 68.1216 13.6843 67.252 15.2422L67.1932 15.3475L57.8583 31.1367C56.5381 33.3682 54.3875 34.9848 51.8768 35.629C51.0758 35.8348 50.2577 35.9376 49.4445 35.9376H49.442Z" fill="white"/>
<path d="M27.3944 73.4928C22.6743 73.4928 18.5029 70.066 17.7215 65.2577C17.3026 62.6735 17.915 60.0795 19.4459 57.9534C20.9768 55.8297 23.245 54.4286 25.8292 54.0073C28.4134 53.586 31.0074 54.2008 33.1335 55.7317C35.2572 57.2626 36.6583 59.5308 37.0796 62.115C37.9467 67.4524 34.3092 72.4983 28.9719 73.3629C28.4428 73.4487 27.9161 73.4903 27.3969 73.4903L27.3944 73.4928ZM27.4165 56.109C27.0074 56.109 26.5983 56.1408 26.1868 56.2094C24.1881 56.5327 22.4367 57.6154 21.2536 59.259C20.0705 60.9001 19.5978 62.9062 19.9211 64.9025C20.5898 69.0274 24.4893 71.8369 28.6142 71.1682C32.7391 70.4995 35.5487 66.6 34.88 62.4751C34.5566 60.4763 33.474 58.725 31.8304 57.5419C30.5273 56.6013 28.9939 56.109 27.4165 56.109Z" fill="url(#paint0_linear_2272_949)"/>
<defs>
<linearGradient id="paint0_linear_2272_949" x1="17.5941" y1="63.6851" x2="37.2069" y2="63.6851" gradientUnits="userSpaceOnUse">
<stop stop-color="#E14492"/>
<stop offset="0.5" stop-color="#E8B125"/>
<stop offset="1" stop-color="#2BC9EC"/>
</linearGradient>
</defs>
</svg>
