<svg width="202" height="57" viewBox="0 0 202 57" fill="none" xmlns="http://www.w3.org/2000/svg">
<path d="M100.221 39.5077H89.3621L101.088 24.4684C101.088 24.4684 101.097 24.4552 101.103 24.4495L101.122 24.425C101.267 24.2197 101.338 23.9446 101.338 23.598C101.338 22.7578 100.918 22.3376 100.078 22.3376H86.7246C85.8843 22.3376 85.4642 22.7578 85.4642 23.598C85.4642 24.4382 85.8843 24.8583 86.7246 24.8583H97.6664L85.8617 39.8676L85.8768 39.8751C85.6997 40.0842 85.6093 40.38 85.6093 40.7662C85.6093 41.6064 86.0294 42.0265 86.8696 42.0265H100.223C101.063 42.0265 101.483 41.6064 101.483 40.7662C101.483 39.926 101.063 39.5058 100.223 39.5058L100.221 39.5077Z" fill="#222222"/>
<path d="M116.999 39.2572H116.027C114.899 39.2572 113.976 38.8672 113.256 38.0873C112.536 37.3073 112.176 36.3051 112.176 35.0824V25.4725H116.244C116.604 25.4725 116.903 25.3595 117.144 25.1296C117.384 24.9017 117.504 24.621 117.504 24.2838C117.504 23.9239 117.384 23.63 117.144 23.4021C116.903 23.1741 116.604 23.0592 116.244 23.0592H112.176V17.4809C112.176 17.074 112.045 16.7368 111.781 16.473C111.517 16.2093 111.18 16.0774 110.773 16.0774C110.366 16.0774 110.034 16.2093 109.784 16.473C109.531 16.7368 109.405 17.074 109.405 17.4809V23.0592H107.065C106.705 23.0592 106.406 23.1741 106.165 23.4021C105.926 23.63 105.805 23.9239 105.805 24.2838C105.805 24.621 105.926 24.9017 106.165 25.1296C106.404 25.3576 106.705 25.4725 107.065 25.4725H109.405V35.0824C109.405 36.4257 109.693 37.6201 110.27 38.6638C110.846 39.7075 111.632 40.5307 112.627 41.1298C113.621 41.7308 114.755 42.0303 116.029 42.0303H116.784C117.216 42.0303 117.576 41.9041 117.864 41.6517C118.152 41.3992 118.295 41.0695 118.295 40.6626C118.295 40.2557 118.175 39.9185 117.936 39.6547C117.696 39.391 117.384 39.2591 116.999 39.2591V39.2572Z" fill="#222222"/>
<path d="M139.28 22.3396C138.872 22.3396 138.542 22.4658 138.291 22.7183C138.041 22.9707 137.913 23.3004 137.913 23.7073V34.3609C137.913 35.3688 137.636 36.2693 137.086 37.0606C136.534 37.8518 135.784 38.4773 134.836 38.9332C133.889 39.3891 132.826 39.6171 131.651 39.6171C130.475 39.6171 129.33 39.3778 128.357 38.8974C127.385 38.417 126.617 37.6973 126.053 36.7384C125.49 35.7795 125.207 34.555 125.207 33.0667V23.7073C125.207 23.323 125.076 22.999 124.812 22.7352C124.548 22.4715 124.211 22.3396 123.804 22.3396C123.42 22.3396 123.096 22.4715 122.832 22.7352C122.568 22.999 122.436 23.323 122.436 23.7073V33.0667C122.436 35.0354 122.826 36.7026 123.606 38.0704C124.386 39.4381 125.447 40.4761 126.792 41.1845C128.135 41.8928 129.659 42.247 131.364 42.247C132.924 42.247 134.339 41.9042 135.612 41.2203C136.509 40.738 137.276 40.1314 137.916 39.3985V40.6268C137.916 41.0583 138.043 41.4011 138.295 41.6536C138.548 41.906 138.877 42.0323 139.284 42.0323C139.691 42.0323 140.028 41.906 140.292 41.6536C140.556 41.4011 140.688 41.0602 140.688 40.6268V23.7092C140.688 23.3023 140.556 22.9707 140.292 22.7202C140.028 22.4677 139.691 22.3415 139.284 22.3415L139.28 22.3396Z" fill="#222222"/>
<path d="M164.728 13.9166C164.32 13.9166 163.984 14.0428 163.721 14.2953C163.457 14.5477 163.325 14.8887 163.325 15.322V25.904C162.534 24.7755 161.49 23.8713 160.194 23.1855C158.898 22.5017 157.445 22.1588 155.838 22.1588C153.99 22.1588 152.334 22.5977 150.87 23.4719C149.406 24.3479 148.248 25.5423 147.396 27.0532C146.545 28.5641 146.119 30.2691 146.119 32.1643C146.119 34.0595 146.556 35.8003 147.432 37.3112C148.308 38.8221 149.503 40.0165 151.013 40.8925C152.524 41.7685 154.229 42.2056 156.125 42.2056C158.02 42.2056 159.681 41.7742 161.181 40.9095C162.681 40.0448 163.867 38.8635 164.745 37.3639C165.621 35.8643 166.083 34.1782 166.132 32.3075V15.3182C166.132 14.8868 166 14.544 165.736 14.2915C165.473 14.0391 165.135 13.9128 164.728 13.9128V13.9166ZM162.443 36.0169C161.806 37.1454 160.944 38.0384 159.851 38.6977C158.758 39.3571 157.517 39.6868 156.125 39.6868C154.732 39.6868 153.521 39.3571 152.417 38.6977C151.313 38.0384 150.437 37.1435 149.789 36.0169C149.141 34.8885 148.817 33.6055 148.817 32.1662C148.817 30.7269 149.141 29.4722 149.789 28.3324C150.437 27.1926 151.313 26.2978 152.417 25.6516C153.521 25.0035 154.757 24.6795 156.125 24.6795C157.492 24.6795 158.758 25.0035 159.851 25.6516C160.942 26.2996 161.806 27.1945 162.443 28.3324C163.078 29.4722 163.397 30.7495 163.397 32.1662C163.397 33.5829 163.078 34.8903 162.443 36.0169Z" fill="#222222"/>
<path d="M174.589 22.3396C174.157 22.3396 173.815 22.4658 173.562 22.7183C173.31 22.9707 173.184 23.3117 173.184 23.745V40.6268C173.184 41.0583 173.31 41.4011 173.562 41.6536C173.815 41.906 174.156 42.0323 174.589 42.0323C174.996 42.0323 175.327 41.906 175.578 41.6536C175.83 41.4011 175.957 41.0602 175.957 40.6268V23.745C175.957 23.3136 175.83 22.9707 175.578 22.7183C175.326 22.4658 174.996 22.3396 174.589 22.3396Z" fill="#222222"/>
<path d="M175.94 15.194C175.544 14.8473 175.094 14.6721 174.591 14.6721C174.088 14.6721 173.602 14.8473 173.204 15.194C172.809 15.5425 172.611 16.0154 172.611 16.6163C172.611 17.1683 172.803 17.6374 173.187 18.0199C173.572 18.4042 174.027 18.5963 174.555 18.5963C175.082 18.5963 175.574 18.4042 175.959 18.0199C176.343 17.6355 176.535 17.1683 176.535 16.6163C176.535 16.0172 176.337 15.5425 175.942 15.194H175.94Z" fill="#222222"/>
<path d="M191.976 41.4144C197.074 41.4144 201.207 37.2814 201.207 32.1831C201.207 27.0849 197.074 22.9519 191.976 22.9519C186.877 22.9519 182.744 27.0849 182.744 32.1831C182.744 37.2814 186.877 41.4144 191.976 41.4144Z" fill="#222222"/>
<path d="M191.993 42.2073C190.073 42.2073 188.357 41.7759 186.846 40.9112C185.335 40.0465 184.146 38.8596 183.281 37.3468C182.417 35.8359 181.985 34.1197 181.985 32.1999C181.985 30.2802 182.417 28.5282 183.281 27.0173C184.146 25.5064 185.333 24.3176 186.846 23.4529C188.357 22.5882 190.073 22.1567 191.993 22.1567C193.912 22.1567 195.621 22.5882 197.123 23.4529C198.622 24.3176 199.803 25.5045 200.668 27.0173C201.533 28.5282 201.976 30.2576 202 32.1999C202 34.1197 201.561 35.8359 200.687 37.3468C199.811 38.8577 198.622 40.0465 197.123 40.9112C195.623 41.7759 193.912 42.2073 191.993 42.2073ZM191.993 39.6885C193.385 39.6885 194.632 39.3645 195.736 38.7164C196.84 38.0684 197.703 37.181 198.328 36.0526C198.952 34.9241 199.265 33.6411 199.265 32.2018C199.265 30.7625 198.952 29.472 198.328 28.3322C197.705 27.1925 196.84 26.2976 195.736 25.6514C194.632 25.0033 193.385 24.6793 191.993 24.6793C190.6 24.6793 189.353 25.0033 188.249 25.6514C187.145 26.2995 186.275 27.1944 185.64 28.3322C185.003 29.472 184.687 30.7625 184.687 32.2018C184.687 33.6411 185.005 34.926 185.64 36.0526C186.275 37.181 187.145 38.0684 188.249 38.7164C189.353 39.3645 190.6 39.6885 191.993 39.6885Z" fill="url(#paint0_linear_2326_4205)"/>
<path d="M63.9046 56.1617H55.9733C53.9801 56.1617 52.0679 55.3705 50.6568 53.9594C49.2477 52.5503 48.4545 50.6381 48.4545 48.643C48.4545 46.6479 49.2458 44.7376 50.6568 43.3266C52.066 41.9174 53.9782 41.1243 55.9733 41.1243H63.9046C65.8978 41.1243 67.81 41.9155 69.221 43.3266C70.6302 44.7358 71.4233 46.6479 71.4233 48.643C71.4233 50.6381 70.6321 52.5484 69.221 53.9594C67.8118 55.3686 65.8997 56.1617 63.9046 56.1617Z" fill="#474747"/>
<path d="M55.8602 56.1617H41.3879C39.3947 56.1617 37.4826 55.3705 36.0715 53.9594C34.6623 52.5503 33.8692 50.6381 33.8692 48.643C33.8692 46.6479 34.6604 44.7376 36.0715 43.3266C37.4807 41.9174 39.3929 41.1243 41.3879 41.1243H55.8602C57.8534 41.1243 59.7656 41.9155 61.1767 43.3266C62.5858 44.7358 63.379 46.6479 63.379 48.643C63.379 50.6381 62.5877 52.5484 61.1767 53.9594C59.7675 55.3686 57.8553 56.1617 55.8602 56.1617Z" fill="#353535"/>
<path d="M48.3415 56.1617H37.1397C35.1465 56.1617 33.2343 55.3705 31.8232 53.9594C30.4141 52.5503 29.6209 50.6381 29.6209 48.643C29.6209 46.6479 30.4122 44.7376 31.8232 43.3266C33.2324 41.9174 35.1446 41.1243 37.1397 41.1243H48.3415C50.3347 41.1243 52.2469 41.9155 53.6579 43.3266C55.0671 44.7358 55.8602 46.6479 55.8602 48.643C55.8602 50.6381 55.069 52.5484 53.6579 53.9594C52.2488 55.3686 50.3366 56.1617 48.3415 56.1617Z" fill="#222222"/>
<path d="M21.051 56.1617C25.2035 56.1617 28.5697 52.7955 28.5697 48.643C28.5697 44.4905 25.2035 41.1243 21.051 41.1243C16.8985 41.1243 13.5322 44.4905 13.5322 48.643C13.5322 52.7955 16.8985 56.1617 21.051 56.1617Z" fill="#222222"/>
<path d="M30.3745 40.1087C29.0369 40.1087 27.7125 39.7527 26.5426 39.0594C24.8264 38.044 23.5848 36.3861 23.0913 34.4551C22.5977 32.5241 22.8897 30.4744 23.907 28.7581L32.0361 15.0356H7.51874C5.52555 15.0356 3.61337 14.2444 2.20231 12.8333C0.791248 11.4241 0 9.51193 0 7.51874C0 5.52555 0.791248 3.61148 2.20231 2.20231C3.61148 0.791248 5.52367 0 7.51874 0H45.0484C46.4199 0 47.7688 0.371133 48.9481 1.07195C50.0483 1.72756 50.9733 2.65822 51.6214 3.7622C52.2695 4.86618 52.6312 6.12841 52.667 7.40759C52.7047 8.77909 52.3712 10.1374 51.7024 11.3356L51.6553 11.4185L51.6063 11.5014L36.842 36.4219C35.8266 38.1382 34.1687 39.3797 32.2377 39.8733C31.6235 40.0296 30.9981 40.1087 30.3745 40.1087Z" fill="#474747"/>
<path d="M34.2083 33.6431C32.8707 33.6431 31.5463 33.2871 30.3764 32.5938C28.6601 31.5783 27.4186 29.9224 26.925 27.9895C26.4296 26.0584 26.7235 24.0087 27.7389 22.2925L32.038 15.0337H7.51874C5.52555 15.0337 3.61337 14.2425 2.20231 12.8314C0.791248 11.4241 0 9.51193 0 7.51874C0 5.52555 0.791248 3.61148 2.20231 2.20231C3.61148 0.791248 5.52367 0 7.51874 0H45.0484C46.4199 0 47.7688 0.371133 48.9481 1.07195C50.0483 1.72756 50.9733 2.65822 51.6214 3.7622C52.2695 4.86618 52.6312 6.12841 52.667 7.40759C52.7047 8.77909 52.3712 10.1374 51.7024 11.3356L51.6553 11.4185L51.6063 11.4995L40.6777 29.9544C39.6623 31.6707 38.0063 32.9122 36.0734 33.4057C35.4592 33.564 34.8319 33.6412 34.2083 33.6412V33.6431Z" fill="#353535"/>
<path d="M38.0044 27.2528C36.6687 27.2528 35.3462 26.8968 34.1782 26.2073C32.4619 25.1918 31.2185 23.5377 30.723 21.6067C30.2276 19.6757 30.5177 17.626 31.5331 15.9097L32.0493 15.0375H7.51874C5.52555 15.0375 3.61337 14.2462 2.20231 12.8352C0.791248 11.4241 0 9.51193 0 7.51874C0 5.52555 0.791248 3.61148 2.20231 2.20231C3.61148 0.791248 5.52367 0 7.51874 0H45.0484C46.4199 0 47.7688 0.371133 48.9481 1.07195C50.0483 1.72756 50.9733 2.65822 51.6214 3.7622C52.2695 4.86618 52.6312 6.12841 52.667 7.40759C52.7047 8.77909 52.3712 10.1374 51.7024 11.3356L51.6572 11.4166L44.4776 23.5604C43.4621 25.2766 41.808 26.52 39.877 27.0155C39.261 27.1737 38.6317 27.2528 38.0063 27.2528H38.0044Z" fill="#222222"/>
<path d="M21.0472 56.1373C17.4169 56.1373 14.2086 53.5016 13.6076 49.8035C13.2854 47.816 13.7564 45.8209 14.9339 44.1856C16.1113 42.5523 17.8558 41.4747 19.8434 41.1506C21.8309 40.8266 23.826 41.2995 25.4612 42.4769C27.0946 43.6544 28.1722 45.3989 28.4962 47.3864C29.1631 51.4915 26.3655 55.3724 22.2605 56.0374C21.8535 56.1033 21.4485 56.1354 21.0491 56.1354L21.0472 56.1373ZM21.0642 42.767C20.7495 42.767 20.4349 42.7915 20.1184 42.8443C18.5811 43.093 17.2341 43.9257 16.3242 45.1898C15.4143 46.452 15.0507 47.9949 15.2994 49.5303C15.8137 52.7029 18.8129 54.8637 21.9854 54.3494C25.1579 53.8351 27.3188 50.8359 26.8045 47.6634C26.5558 46.1261 25.7231 44.7791 24.459 43.8691C23.4567 43.1457 22.2774 42.767 21.0642 42.767Z" fill="url(#paint1_linear_2326_4205)"/>
<defs>
<linearGradient id="paint0_linear_2326_4205" x1="181.987" y1="32.183" x2="202" y2="32.183" gradientUnits="userSpaceOnUse">
<stop stop-color="#E14492"/>
<stop offset="0.5" stop-color="#E8B125"/>
<stop offset="1" stop-color="#2BC9EC"/>
</linearGradient>
<linearGradient id="paint1_linear_2326_4205" x1="13.5096" y1="48.594" x2="28.5942" y2="48.594" gradientUnits="userSpaceOnUse">
<stop stop-color="#E14492"/>
<stop offset="0.5" stop-color="#E8B125"/>
<stop offset="1" stop-color="#2BC9EC"/>
</linearGradient>
</defs>
</svg>
